<svg xmlns="http://www.w3.org/2000/svg" width="780" height="748" viewBox="0 0 585 561"><path fill="#ede8e1" d="M0 0h51.84c-1.52 1.28-2.81 2.93-4.64 3.8-2.07.68-4.28.65-6.43.82l-.36 2.96c-4.32.88-9.29 2.34-12.93-1.08q-2.49 2.445-5.04 4.83c1.14 1.53 2.65 2.92 4.68 2.87 14.3 1.24 28.69 1 43.03 1.04 6.96-1.29 13.95.85 20.91-.3 6.62-.79 13.28-.05 19.91-.02 10.19.35 20.41.03 30.55 1.2 3.55.46 7.09 1.05 10.64 1.56-26.71.63-53.44-.74-80.14.53-13.35.04-26.71.21-40.04-.38-2.23-.32-4.47.02-6.65.5-1.25-1.17-2.82-2.28-4.63-1.78-.76 3.24-1.06 6.69-.23 9.94 2.6 3.45 7.39 3.9 10.81 6.25.42 3.36-2.09 6.3-3.22 9.33 5.86 4.64 10.03 11.27 16.75 14.81 3 1.65 5.22 4.32 7.51 6.8 3.27 3.6 7.14 6.59 10.57 10.04-.53-2.48-.98-4.97-1.42-7.47 2.86 1.26 5.72 2.5 8.59 3.7-.06-1.57-.12-3.13-.19-4.7-3.55-1.9-7.15-3.74-10.9-5.25.52-1.49 1.03-2.99 1.55-4.48 2.79 3.3 6.5 5.56 9.93 8.11 2.56 1.86 3.31 5.09 4.48 7.84 2.85 1.12 6.15 1.86 8.09 4.44 2.94 3.66 5.52 7.6 8.27 11.41l-4.46.33c2.55 1.29 5.87 2.24 6.57 5.44-6.08.19-10.41-4.55-15.56-7-2.52-.84-2.21-3.77-2.72-5.89-3.37-1.15-6.71-2.43-9.84-4.17-.46 1.01-.92 2.02-1.37 3.03-9.54-8.12-18.7-16.66-28.29-24.71-2.12-1.8-4.02-3.83-5.85-5.92q-.885-.975-1.83-1.89c-.65-.56-1.31-1.1-1.97-1.64-.87.55-1.74 1.1-2.6 1.65.54 1.78 1.09 3.57 1.63 5.35-3.85.43-7.27 2.26-10.24 4.66-2.49-.96-5.08-1.64-7.74-1.83 3.04 2.13 6.28 4.12 8.58 7.12-1.61 1.7-4.12 3.43-3.43 6.15.8 3.53 3.14 6.87 1.87 10.63a28.4 28.4 0 0 0-9.11-.48c-.06-1.5.26-3.13-.47-4.5C3 73.1 1.49 72.73 0 72.26z"/><path fill="#e8e2db" d="M51.84 0h110.17c1.84 4.87 7.64 5.6 10.51 9.56.9 1.09 1.73 2.23 2.57 3.36-2.69.73-5.37 1.49-8.09 2.11-8.46 1.44-17.04-.46-25.48 1.09-10.14-1.17-20.36-.85-30.55-1.2-6.63-.03-13.29-.77-19.91.02-6.96 1.15-13.95-.99-20.91.3-14.34-.04-28.73.2-43.03-1.04-2.03.05-3.54-1.34-4.68-2.87q2.55-2.385 5.04-4.83c3.64 3.42 8.61 1.96 12.93 1.08l.36-2.96c2.15-.17 4.36-.14 6.43-.82 1.83-.87 3.12-2.52 4.64-3.8"/><path fill="#eee9e2" d="M162.01 0h341.93c1.5 2.83 3.48 5.4 6.53 6.65 2.44-1.64 5-4.06 8.2-3.38 1.09 1.51 1.62 3.33 2.24 5.07 3.99.05 7.96.43 11.88 1.14-.48-.94-.94-1.89-1.4-2.84q.435-.63.9-1.26c3.76 2.73 8.42 3.08 12.91 3.16.51-1.9 1.03-3.81 1.58-5.71.48 1.79 2.48 3.84 1.01 5.6-.53.78-1.06 1.54-1.61 2.29 2.9 2.64 6.97.43 10.29 1.67 1.1.99 1.88 2.26 2.76 3.44-.55.21-1.64.63-2.18.84-3.12-1.44-6.4-3.02-9.93-2.53-5.62.6-11.27 1.1-16.91.65-8.44-.6-16.91.42-25.32-.61-10.3-1.43-20.55 1.52-30.88.8-7.54-.34-15.08.46-22.61-.08-2.07-.29-3.95.66-5.72 1.58.96.48 1.92.93 2.9 1.37-1.65 4.87-1.26 10.06-1.2 15.11.28 23.35.12 46.7.01 70.06-.06 7.73.32 15.47-.38 23.19-.57 6.24-.31 12.52-.36 18.78-.08 28.01.09 56.01-.01 84.01.09 32.67-.51 65.33-.35 98-.15 16.33.45 32.68-.55 48.99-.12 11.01-.06 22.02.44 33.01-.64 9.27-.17 18.57-.67 27.85 1 .32 2 .65 3.01.99-.3.33-.91.99-1.22 1.32-5.34-.33-9.15 3.49-12.44 7.13-17.91-15.3-35.4-31.08-53.51-46.14-7.67-6.83-15.24-13.77-23.12-20.35.62-1.26 1.25-2.52 1.87-3.77 1.86.23 3.79.28 5.58.91 2.71 1.64 3.95 5.43 7.21 6.1 2.66-.9 2.61-4.04 3.26-6.28-2.05-.57-4.25-.79-6.09-1.89-.52-1.06-.89-2.17-1.29-3.26q3.015-.6 6.06-1.14c2.05-5.63-.78-11.3.13-17.01 5.25.08 10.77.69 15.74-1.42 4.53-1.96 8.57-4.85 12.74-7.45 3.21.22 6.71-.16 9.55 1.67.52-1.45 1.04-2.88 1.57-4.32-.97-.91-1.93-1.81-2.89-2.72.8-1.88 1.55-3.96.57-5.94-.48-2.36-2.67-5.34-.34-7.37 2.33-2.51 6.33.14 8.87-2.01 1.23-.9 2.38-1.92 3.54-2.92-3.19-2.34-6.48-4.52-9.88-6.52.03-.46.11-1.37.14-1.83a163 163 0 0 0 4.75-3.55c.12-1.8.29-3.59.81-5.32-1.31-1.09-2.61-2.17-3.89-3.27 2.08-.15 4.17-.35 6.25-.61-1.96-.91-4.05-1.46-6.2-1.59.21-2.03.41-4.06.59-6.09 2.2.99 4.41 1.98 6.6 3.03-1.2-2.81-2.01-5.75-2.78-8.69-.4-2.23-3.43-1.76-5.05-2.53-.15-3.18.05-6.45-.93-9.52-1.41-1.24-3.06-2.16-4.62-3.18.25-1.11.52-2.21.79-3.31 2.17 1.3 4.32 2.63 6.45 4.01 2.02-1.5 3.72-3.37 5-5.54-2.7-.31-5.4-.57-8.1-.8 1.36-3.69 1.38-7.6.78-11.44-.67-2.67 1.56-4.64 2.89-6.66 3.17 2.7 5.64 6.14 8.93 8.68 1.67.28 3.37.14 5.06.1-1.2-.93-2.39-1.85-3.6-2.74 3.19.04 6-1.46 8.43-3.4-1.23-1.21-2.47-2.41-3.71-3.59 3.17.26 6.35-.19 9.21-1.62-3.36-.58-6.7-1.28-9.99-2.16 1.23-1.44 2.47-2.88 3.7-4.33-3.28-.56-7.57-.96-9.55 2.33-.28 2.3-.48 4.61-.99 6.88-1.4-1.61-3.28-3.02-3.96-5.1-.31-2.93-.11-5.89-.07-8.83-1.79 2.06-3.88 4.03-4.84 6.64.42.94 1.04 1.76 1.61 2.63-.86 1.91-1.89 3.74-3.09 5.46-.4-1.88-.74-3.77-1.1-5.66-2.32-1.62-4.46-3.49-6.25-5.69-1.59 2.57-5.89 5.42-3.78 8.68 2.03 1.04 4.26 1.62 6.43 2.33-.89.48-1.77.96-2.65 1.44-1.7-.51-3.4-1.03-5.09-1.55-.19 5.59-.14 11.2-.82 16.76-.82 6.15.74 12.37-.5 18.5-1.17 6.49-.65 13.1-.35 19.65.31 6.36-1.02 12.66-.96 19.02.03 4.16-.13 8.32-.71 12.44-.8-2.94-1.61-5.88-2.28-8.84-.43-16.53.03-33.06-.15-49.59.04-17.99.69-36 .03-53.99-.07-3.11.19-6.22.45-9.31.87 1.43 1.74 2.86 2.62 4.3 1.03-1.85 2.36-3.74 2.11-5.98-.19-6.62-2.44-13.11-1.49-19.78.22-4.77 2.29-10.41-1.35-14.43-5.4-6.58-12.61-11.47-17.61-18.42-3.03-4.27-6.7-7.98-10.59-11.47-2.97-2.45-2.11-6.8-4.08-9.81-1.96-2.39-5.24-2.77-8-3.66-.21-1-.41-2.01-.6-3.01-2.11-.03-4.21-.07-6.31-.1-.27-3.51 2.03-6.1 4.34-8.41 1.44 1.06 3.02 2.01 4.13 3.45 5.86 8.82 14.56 15.32 23.57 20.67 3.16 2.03 4.87 5.63 7.95 7.75 1.91.94 4.16.61 6.23.77-.94-1.01-1.88-2.01-2.83-3 2.75-3.26 1.8-7.68 1.92-11.58-.29-19.67.15-39.33.06-59 .08-20.61-.03-41.22.24-61.82-.4.01-1.2.03-1.6.05-13.68.35-27.35-1.23-41.03-.3-6.32.7-12.68.38-19-.14-23.36-.41-46.72.44-70.08-.25.17.6.52 1.81.69 2.41-1.65.29-3.3.59-4.95.88 6.66 5.38 12.22 12.01 17.55 18.67-2.56.17-5.13.25-7.69.29-1.18-3.06-2.36-6.11-3.55-9.16-3.69.92-7.78 1.7-11.28-.31-4.85-2.12-5.98-8.09-10.33-10.81-3.98-2.53-8.48-4.58-13.29-4.6-9.23-.13-18.45-.7-27.65-1.42-12.81-1.41-25.6 2.12-38.42.54 2.72-.62 5.4-1.38 8.09-2.11-.84-1.13-1.67-2.27-2.57-3.36-2.87-3.96-8.67-4.69-10.51-9.56"/><path fill="#f6efea" d="M503.94 0H585v38.43c-.55-2.2-.9-4.64-2.43-6.4-1.41-.53-2.89-.8-4.33-1.16l-1.17 7.11c-5.42-.4-8.02-5.77-12.63-7.83-2.78-1.14-3.98-4.08-5.11-6.63-2.16 4.41-2.73 9.37-1.94 14.2.71 4.41.62 9.02-1.54 13.04-2.61-4.51-1.53-9.82-1.58-14.76-.05-5.87 1.12-12.05-1.42-17.58l-.09-.24-.41-.04c-8.4-1.2-16.9-.4-25.35-.53-17.33.38-34.66-.18-51.99.17-8.81 0-17.64.91-26.43.07-.98-.44-1.94-.89-2.9-1.37 1.77-.92 3.65-1.87 5.72-1.58 7.53.54 15.07-.26 22.61.08 10.33.72 20.58-2.23 30.88-.8 8.41 1.03 16.88.01 25.32.61 5.64.45 11.29-.05 16.91-.65 3.53-.49 6.81 1.09 9.93 2.53.54-.21 1.63-.63 2.18-.84-.88-1.18-1.66-2.45-2.76-3.44-3.32-1.24-7.39.97-10.29-1.67.55-.75 1.08-1.51 1.61-2.29 1.47-1.76-.53-3.81-1.01-5.6-.55 1.9-1.07 3.81-1.58 5.71-4.49-.08-9.15-.43-12.91-3.16q-.465.63-.9 1.26c.46.95.92 1.9 1.4 2.84-3.92-.71-7.89-1.09-11.88-1.14-.62-1.74-1.15-3.56-2.24-5.07-3.2-.68-5.76 1.74-8.2 3.38-3.05-1.25-5.03-3.82-6.53-6.65"/><path fill="#f8ecec" d="M141.52 16.12c8.44-1.55 17.02.35 25.48-1.09 12.82 1.58 25.61-1.95 38.42-.54 9.2.72 18.42 1.29 27.65 1.42 4.81.02 9.31 2.07 13.29 4.6 4.35 2.72 5.48 8.69 10.33 10.81 3.5 2.01 7.59 1.23 11.28.31 1.19 3.05 2.37 6.1 3.55 9.16 2.56-.04 5.13-.12 7.69-.29-5.33-6.66-10.89-13.29-17.55-18.67 1.65-.29 3.3-.59 4.95-.88 8.19 7.44 15.67 15.63 23.61 23.34 4.31 4.86 9.13 9.2 13.69 13.8 23.79 24.85 48.26 49.04 72.51 73.44 5.23 5.46 10.89 10.52 15.62 16.45 1.09 1.23 2.22 2.41 3.37 3.6.95.99 1.89 1.99 2.83 3-2.07-.16-4.32.17-6.23-.77-3.08-2.12-4.79-5.72-7.95-7.75-9.01-5.35-17.71-11.85-23.57-20.67-1.11-1.44-2.69-2.39-4.13-3.45-2.31 2.31-4.61 4.9-4.34 8.41 2.1.03 4.2.07 6.31.1.19 1 .39 2.01.6 3.01 2.76.89 6.04 1.27 8 3.66 1.97 3.01 1.11 7.36 4.08 9.81 3.89 3.49 7.56 7.2 10.59 11.47 5 6.95 12.21 11.84 17.61 18.42 3.64 4.02 1.57 9.66 1.35 14.43-.95 6.67 1.3 13.16 1.49 19.78.25 2.24-1.08 4.13-2.11 5.98-.88-1.44-1.75-2.87-2.62-4.3-.26 3.09-.52 6.2-.45 9.31.66 17.99.01 36-.03 53.99.18 16.53-.28 33.06.15 49.59-.24 5.06-.47 10.12-.46 15.19l-.77-.06c-.44-26.24-.05-52.49-.19-78.73-.11-27 .05-54 .05-81 .34-2.67-2.11-4.18-3.76-5.81-11.13-9.88-20.79-21.25-31.59-31.47-28.6-29.37-57.92-58.05-86.58-87.37-11.39-11.62-22.65-23.38-34.23-34.82-.99-.94-2.17-1.65-3.39-2.25-13.02-.15-26.07.43-39.06-.48-10.33 1.09-20.67-.14-31.01-.01-35.34-.24-70.67-.4-106-.36-9.34-.22-18.7.18-28.02-.6 13.33.59 26.69.42 40.04.38 26.7-1.27 53.43.1 80.14-.53-3.55-.51-7.09-1.1-10.64-1.56"/><path fill="#e8dedb" d="M20.7 16.55c1.81-.5 3.38.61 4.63 1.78 5.62 5.73 11.96 10.69 17.84 16.15-.77.21-2.3.62-3.07.83 2.57 3.29 5.53 6.24 8.87 8.75 4.34 3.29 8.02 7.33 11.55 11.46-.52 1.49-1.03 2.99-1.55 4.48 3.75 1.51 7.35 3.35 10.9 5.25.07 1.57.13 3.13.19 4.7-2.87-1.2-5.73-2.44-8.59-3.7.44 2.5.89 4.99 1.42 7.47-3.43-3.45-7.3-6.44-10.57-10.04-2.29-2.48-4.51-5.15-7.51-6.8-6.72-3.54-10.89-10.17-16.75-14.81 1.13-3.03 3.64-5.97 3.22-9.33-3.42-2.35-8.21-2.8-10.81-6.25-.83-3.25-.53-6.7.23-9.94"/><path fill="#1a0204" d="M25.33 18.33c2.18-.48 4.42-.82 6.65-.5 9.32.78 18.68.38 28.02.6 35.33-.04 70.66.12 106 .36 10.34-.13 20.68 1.1 31.01.01 12.99.91 26.04.33 39.06.48a571 571 0 0 0 3.87 4.73c-5.72-2.44-11.93-3.01-18.08-2.62-10.33-.42-20.66.54-30.99.2-15.02-1.53-30.11.85-45.14-.15-13.14-.92-26.34.71-39.45-.81-7.1-.85-14.16.86-21.27.65-6.92-.28-13.79 1.63-20.7.52-7.17-1.01-14.26.88-21.36 1.6.26 2.09.48 4.17.67 6.27 1.22-.45 2.44-.89 3.66-1.33.31 2.23-.11 4.93 1.82 6.53 3.93 3.66 8.82 6.43 11.39 11.36-1.33-.06-2.66-.12-3.98-.19-4.41-3.9-8.94-7.66-13.34-11.56-5.88-5.46-12.22-10.42-17.84-16.15"/><path fill="#956972" d="M448.58 17.85c8.79.84 17.62-.07 26.43-.07 17.33-.35 34.66.21 51.99-.17 8.45.13 16.95-.67 25.35.53.13.07.37.21.5.28-.69 22.85-.2 45.72-.33 68.58-.02 45.67-.35 91.33-.24 137-.01 9.34.3 18.68-.24 28-.41 5.67.62 11.33.1 17-.96 10.28-.19 20.62-.56 30.93-2.2-11.32.92-22.97-1.64-34.24-.86-11.89.35-23.79.24-35.69-.51-18 .36-36 .13-54 .04-24.34.04-48.67.07-73-.01-24.68.01-49.36.21-74.04.06-2.62.24-5.23.5-7.83.05-.6.17-1.79.22-2.39-8.76-.4-17.53.05-26.3.01-16.01.22-32.01-.14-48.02.02-9.35.1-18.72-.65-28.05.15-.06 2.69-.14 5.39-.04 8.08 1.15 16.42.25 32.89.81 49.33-.43 5.9-.12 11.82-.29 17.73-1.27 18.95-.33 37.96-.82 56.95.1 50.3-.17 100.6-.01 150.9-.45 15.69.69 31.42-.67 47.08-.57 6.82.23 13.63.4 20.45-1.2 21.94.18 43.94-.96 65.89 2.51-1.66 4.7-3.72 6.66-6 5.41-5.7 10.9-11.32 16.64-16.69 6.93-7.66 15.47-13.78 21.43-22.32 1.61-1.15 3.4-2.02 5.16-2.93l.86-.43c-4.35 6.27-10.42 11.01-15.71 16.44-11.08 11.68-22.92 22.64-33.88 34.44-1.01-.34-2.01-.67-3.01-.99.5-9.28.03-18.58.67-27.85-.5-10.99-.56-22-.44-33.01 1-16.31.4-32.66.55-48.99-.16-32.67.44-65.33.35-98 .1-28-.07-56 .01-84.01.05-6.26-.21-12.54.36-18.78.7-7.72.32-15.46.38-23.19.11-23.36.27-46.71-.01-70.06-.06-5.05-.45-10.24 1.2-15.11"/><path fill="#ac9e9d" d="m552.35 18.14.41.04.09.24c-.13-.07-.37-.21-.5-.28"/><path fill="#470314" d="M236.07 19.28c1.22.6 2.4 1.31 3.39 2.25 11.58 11.44 22.84 23.2 34.23 34.82 28.66 29.32 57.98 58 86.58 87.37 10.8 10.22 20.46 21.59 31.59 31.47 1.65 1.63 4.1 3.14 3.76 5.81 0 27-.16 54-.05 81 .14 26.24-.25 52.49.19 78.73-.82-.07-1.65-.14-2.46-.2.28-.35.84-1.06 1.13-1.42-1.62-10.99.12-22.12-1.34-33.12-3.17 1.56-6.18 3.4-9.08 5.41 1.56.98 3.21 1.86 4.61 3.08 2 4.03 1.19 8.71 1 13.03-.62.08-1.85.23-2.47.3-1.44-2.82-2.88-5.64-4.35-8.44-2.37.06-4.77.33-7.11-.12-2.16-1.27-3.6-3.45-5.28-5.25-.22 1.77-.62 3.5-1.11 5.22-28.49-24.72-56.81-49.63-85.48-74.13-6.2-5.31-12.32-10.7-18.22-16.32 1.17-.76 2.34-1.51 3.52-2.26-1.75-1.12-3.52-2.22-5.11-3.54-3.53-2.87-4.97-7.64-8.93-10.06-7-4.36-13.55-9.63-18.51-16.27 3.77-.72 7.38-2.08 10.66-4.08 3.01-1.4 7.06-1.22 8.99-4.33 2.83-4.84 8.71-6.19 13.84-7.09 3.49.26 6.69 1.94 10.02 2.92-1.67-4.22-3.43-8.41-5.08-12.63 5.25-3.71 10.35-7.96 16.76-9.48 1.65 3.29 2.04 6.93.8 10.42.22.25.67.75.89.99 1.78-.23 3.56-.48 5.34-.72.79 1.5 1.6 2.99 2.4 4.49 1.7-.92 3.42-1.82 5.14-2.7-1.88-1.03-3.83-1.96-5.52-3.3-.43-2.39.33-4.8.28-7.2-2.1-1.31-4.72-1.73-6.66-3.29-1.73-3.14-2.42-6.76-4.27-9.85-1.83-3.34-4.58-6.64-4.14-10.7.05-5.34 9.86-3.27 8.93-8.98-.1-4.58-4.57-6.8-7.21-9.86-2.56-2.81-2.58-7.2-5.17-9.86-5.41-.59-9.66 4.05-14.47 5.91 2.82-4.5 7.22-7.59 10.56-11.62 1.54-1.65.48-3.96.34-5.89-5.76-.06-8.57 5.84-13.26 8.22-.29-4.81.04-9.69-1.19-14.39-.49-2.45-1.4-4.91-1.09-7.44 1.46-2.78 3.96-5.13 6.82-6.44 4.17-.4 8.78 1.37 12.42-1.54-6.07-2.58-12.56-3.93-19.08-4.69-.81-3.08-1.58-6.16-2.26-9.27-3.04.86-6.03 1.89-8.97 3.03-.64 1.81-1.29 3.62-1.94 5.43-1.6-.45-3.21-.85-4.76-1.46-1.05-1.75.72-3.43 1.3-5.05-3.69-1.99-6.98-4.8-10.99-6.11-1.43.35-2.81.88-4.19 1.36 1.9 2.39 4.52 4.58 5.09 7.74.61 3.04-2.42 5.28-5.1 5.68-2.59-.01-4.95-1.25-7.32-2.12-1.32 1.75-2.65 3.49-3.99 5.23l5.32.6c-1.37 3.58-2.76 7.14-4.12 10.72-2.56.12-5.13.25-7.69.38.03 1.06.07 2.12.11 3.19q3.33.57 6.6 1.38c-.29 6.46 8.54 6.31 10.91 11.2 1.18 1.93-1.03 3.76-2.56 4.64-2.91 1.52-5.88-.49-8.54-1.59 2.86-1.21 5.6-2.71 8.18-4.45-2.47-.71-5.28-2.73-7.77-1.05-4.59 2.86-9.8 5.38-12.65 10.21-.74 1.02-1.52 2.02-2.36 2.97-1.74-2.04-1.43-5.01-2.89-7.2-1.6-2.46-3.38-4.79-4.98-7.24-1.32.73-2.58 1.55-3.79 2.45 1.18-3.41 1.85-7.02 1.56-10.64 3.12-.77 6.25-1.5 9.37-2.25.24-2.04.25-4.17 1.09-6.08 2.29-1.25 4.86-1.83 7.35-2.57-1.22-1.44-2.42-2.89-3.61-4.34.8-.69 1.61-1.37 2.42-2.05-.78-1.1-1.64-2.16-2.26-3.36.17-1.36.54-2.67.86-4 2.61 1.73 5.55 2.84 8.63 3.38.6-3.55.66-7.16.34-10.74-3.96.16-7.84-.77-11.23-2.84 3.78.06 7.55-.24 11.29-.84-.29-2.76.09-5.89-1.78-8.19-3.22-.54-6.91 1.16-9.74-1.06-3.15-1.83-5.86-5.44-4.24-9.21 1.63-4.77 7.77-2.12 11.48-2.47 1.83-1.87 3.5-3.99 5.79-5.34 2.11-.91 4.45-1.05 6.7-1.44-.95-1.23-1.31-3.85-3.3-3.57-7.8 1.51-15.79-.71-23.52 1.59.92 1.19 1.84 2.39 2.74 3.61-3.4.56-4.47-2.98-5.86-5.32-2.68.03-5.36.09-8.03.14.17-1.66.38-3.33.56-5 10.33.34 20.66-.62 30.99-.2 6.15-.39 12.36.18 18.08 2.62a571 571 0 0 1-3.87-4.73"/><path fill="#1e0305" d="M265.92 18.54c23.36.69 46.72-.16 70.08.25 6.32.52 12.68.84 19 .14 13.68-.93 27.35.65 41.03.3a49 49 0 0 0-.62 3.17c-6.56-.8-13.17-.35-19.76-.57-22.86-1.5-45.76.27-68.65-.09-10.71-.51-21.46-.61-32.16.17 3.2 3.37 5.95 7.11 8.45 11.02 2.3 3.9 8.38 5.95 6.93 11.36-7.94-7.71-15.42-15.9-23.61-23.34-.17-.6-.52-1.81-.69-2.41"/><path fill="#836067" d="M396.03 19.23c.4-.02 1.2-.04 1.6-.05-.27 20.6-.16 41.21-.24 61.82.09 19.67-.35 39.33-.06 59-.12 3.9.83 8.32-1.92 11.58-1.15-1.19-2.28-2.37-3.37-3.6.97.28 1.94.56 2.92.84-.09-1.86-.19-3.72-.27-5.58-.46-16.72 1.11-33.44.06-50.14-.17-5.38.64-10.73.65-16.1-.02-18.2.01-36.4.01-54.6.17-1.06.38-2.12.62-3.17"/><path fill="#310205" d="M448.94 18.92c9.33-.8 18.7-.05 28.05-.15 16.01-.16 32.01.2 48.02-.02 8.77.04 17.54-.41 26.3-.01-.05.6-.17 1.79-.22 2.39-8.55.88-17.06-1.55-25.58-.22-6.16.49-12.28-.74-18.44-.5-3.1.1-6.19.45-9.29.56-.51 0-1.54.01-2.06.01l-.96.01c-9.49-.27-18.98.14-28.47-.17-4.66-.17-9.3.4-13.88 1.18.36 4 .8 8.01.82 12.03.06 5.7-1.7 11.26-1.32 16.97.06 8.45 1.98 17.49-2.2 25.33-.56-16.44.34-32.91-.81-49.33-.1-2.69-.02-5.39.04-8.08"/><path fill="#f1ede6" d="M552.85 18.42c2.54 5.53 1.37 11.71 1.42 17.58.05 4.94-1.03 10.25 1.58 14.76 2.16-4.02 2.25-8.63 1.54-13.04-.79-4.83-.22-9.79 1.94-14.2 1.13 2.55 2.33 5.49 5.11 6.63 4.61 2.06 7.21 7.43 12.63 7.83l1.17-7.11c1.44.36 2.92.63 4.33 1.16 1.53 1.76 1.88 4.2 2.43 6.4V339.3c-.64 2.57-1.85 4.93-3.05 7.27-1.29-2.8-3.42-5.06-4.98-7.69-.82 2.67-2.1 5.16-3.5 7.57.29 1.79.44 3.7-.51 5.35-1.44 3.83-5.58 5.27-8.52 7.69-4.38 3.55-8.69 7.53-10.93 12.83 1.57-.26 3.14-.53 4.71-.8-.46 3.42-.3 6.89.2 10.3-1.7 1.82-3.83 3.4-4.8 5.75-1.05 4.35-.22 8.89-.72 13.31-.13 1.26-.77 2.22-1.93 2.87-.79-8.66.14-17.36-.47-26.03-.07-3.64.05-7.29-.26-10.9-6.51 3.46-10.39 10.03-16.07 14.55-.01-1.68 0-3.36.04-5.03 2.61-3.14 4.37-6.99 4.7-11.09-.94-1.74-2.28-3.22-3.51-4.76-.06-.5-.2-1.52-.26-2.02 1.45-.11 2.91-.22 4.37-.32.21-1.34.43-2.67.67-4 4.15-3.52 7.46-7.88 11.01-11.99 3.02-3.45 3.6-8.2 4.42-12.54.56-4.41 1.37-9.38-1.48-13.21-1.89 5.82-.19 12.05-1.9 17.89-1.35-11.42.13-22.93-.65-34.37.37-10.31-.4-20.65.56-30.93.52-5.67-.51-11.33-.1-17 .54-9.32.23-18.66.24-28-.11-45.67.22-91.33.24-137 .13-22.86-.36-45.73.33-68.58"/><path fill="#3a050c" d="M85.01 21.28c7.11.21 14.17-1.5 21.27-.65 13.11 1.52 26.31-.11 39.45.81 15.03 1 30.12-1.38 45.14.15-.18 1.67-.39 3.34-.56 5 2.67-.05 5.35-.11 8.03-.14 1.39 2.34 2.46 5.88 5.86 5.32-.9-1.22-1.82-2.42-2.74-3.61 7.73-2.3 15.72-.08 23.52-1.59 1.99-.28 2.35 2.34 3.3 3.57-2.25.39-4.59.53-6.7 1.44-2.29 1.35-3.96 3.47-5.79 5.34-3.71.35-9.85-2.3-11.48 2.47-1.62 3.77 1.09 7.38 4.24 9.21 2.83 2.22 6.52.52 9.74 1.06 1.87 2.3 1.49 5.43 1.78 8.19-3.74.6-7.51.9-11.29.84 3.39 2.07 7.27 3 11.23 2.84.32 3.58.26 7.19-.34 10.74-3.08-.54-6.02-1.65-8.63-3.38-.32 1.33-.69 2.64-.86 4 .62 1.2 1.48 2.26 2.26 3.36-.81.68-1.62 1.36-2.42 2.05 1.19 1.45 2.39 2.9 3.61 4.34-2.49.74-5.06 1.32-7.35 2.57-.84 1.91-.85 4.04-1.09 6.08-3.12.75-6.25 1.48-9.37 2.25.29 3.62-.38 7.23-1.56 10.64 1.21-.9 2.47-1.72 3.79-2.45 1.6 2.45 3.38 4.78 4.98 7.24 1.46 2.19 1.15 5.16 2.89 7.2.84-.95 1.62-1.95 2.36-2.97 1.2 1.21 2.13 3.42 4.16 3.17 1.97-.17 3.83-.91 5.7-1.52.62 1.57 1.24 3.13 1.87 4.69-4.54-.52-9.11-1.75-13.7-1.27-4.22 2.12-6.78 6.41-9.64 9.99 2.35 1.93 4.79 3.76 7.42 5.28.48 2.91.08 6.63 2.81 8.54 3.27 1.66 7.07 1.66 10.63 2.2-.47 1.53-.95 3.06-1.42 4.59-3.81-1.28-8.01-2.07-11.1-4.83-1.7-1.77-2.57-4.13-3.71-6.26-1.07 1.94-2.15 3.95-2.24 6.22-.64 6.12-1.31 12.26-1.59 18.42.17 1.06-.34 2.56.69 3.29 3.77 1.69 8.18 1.97 11.53 4.58 3.54 2.45 4.43 6.92 5.92 10.68 2.9.43 5.45 1.89 7.03 4.4 2.18 3.22 5.67 5 9.22 6.33 1.08-.71 2.17-1.4 3.26-2.1 1.33.67 2.66 1.34 4 2.01 1.61-.73 3.22-1.46 4.79-2.29.19.5.59 1.52.79 2.03.63.3 1.9.91 2.53 1.21-3.28 2-6.89 3.36-10.66 4.08 4.96 6.64 11.51 11.91 18.51 16.27 3.96 2.42 5.4 7.19 8.93 10.06 1.59 1.32 3.36 2.42 5.11 3.54-1.18.75-2.35 1.5-3.52 2.26-26.41-22.34-52.06-45.56-78.41-67.96-4.22-3.9-8.51-7.73-12.96-11.37.19-.96.39-1.92.59-2.87 3.73-1.72 7.53-3.74 9.55-7.51-.65-.6-1.3-1.2-1.94-1.8-2.3 1.14-4.64 2.2-6.98 3.26 3.31-4.48 3.14-10.16 4.74-15.26-2.03-1.58-5.07-2.95-4.95-5.96.28-5.48 2.78-10.62 5.78-15.12 2.57.51 5.38.89 6.71-1.96-2.79-3.04-6.37-5.37-10.56-5.71 2.25-3.22 3.61-6.98 3.3-10.95-4.91 1.63-7.95 5.96-11.86 9.05-4.67 3.67-9.49 7.29-15.1 9.38-1.57-1.6-2.95-3.51-4.97-4.57-3.43-.22-6.7 1.51-10.13 1.21-2.68-.57-5.07-1.95-7.49-3.17-1.21 1.18-2.5 2.3-3.51 3.66-.38 1.45-.16 2.98-.15 4.46-.54.16-1.61.47-2.15.63-6.78-5.67-12.85-12.16-19.92-17.48C88.9 74.57 72.62 60.4 56.51 46.04c1.32.07 2.65.13 3.98.19-2.57-4.93-7.46-7.7-11.39-11.36-1.93-1.6-1.51-4.3-1.82-6.53-1.22.44-2.44.88-3.66 1.33-.19-2.1-.41-4.18-.67-6.27 7.1-.72 14.19-2.61 21.36-1.6 6.91 1.11 13.78-.8 20.7-.52"/><path fill="#4a0315" d="M452.41 22c4.58-.78 9.22-1.35 13.88-1.18 9.49.31 18.98-.1 28.47.17-.9 2.95-.74 6.03-.23 9.02 3.66 1.07 7.5 2.28 9.88 5.49-6.38.69-13.1.18-18.95 3.29 1.04 1.48 1.95 3.1 3.32 4.31 3.14.83 6.34 1.46 9.53 2.12-1.83 1.03-3.66 2.03-5.49 3.04l.8 1.92c1.72.22 3.44.43 5.17.64-.42 3.77-.03 8.18-2.78 11.18-2.88 2.47-5.99 4.65-8.86 7.14-2 1.93-4.95 1.42-7.47 1.61-.84 4.94-2.9 9.82-2.44 14.88 1.37 2.45 4.21 1.52 6.41 1.18-.25 2.25-.74 4.53-.33 6.79 1.47 3.3 4.52 5.5 7.03 7.97-1.59 1.39-3.04 3.12-5.13 3.75-4.26 1.72-8.51-2.04-12.76-1.01-6.59 5.1-3.9 14.46-6.81 21.31-2.26 2.46-5.24 4.25-6.98 7.2 3.25 2.19 6.3 4.72 8.56 7.96 3.13 4.35 7.63 7.39 11.21 11.33-2.74 1.32-5.61 2.48-8.07 4.29-1.32 4.06-1.58 8.4-1.97 12.64-.34 3.04.71 6.67 3.92 7.72 4.92 2.45 10.16-.56 15.25-.44.95 1.07 1.75 2.26 2.62 3.4-.85.6-1.7 1.21-2.55 1.81-2.7 0-5.37.33-8.03.72 1.62 1.16 3.24 2.34 4.89 3.47-4.29 2.58-9.52 1.66-14.04 3.52.73 3.83 1.56 7.76.56 11.63-2.8-1.86-4.38-4.85-5.48-7.93-1.15 1.25-2.3 2.49-3.46 3.73 1.62 1.34 3.24 2.68 4.88 4.01.32 1.46.64 2.92.96 4.39 1.2.6 2.41 1.2 3.61 1.8-.46 1.06-.92 2.12-1.37 3.18 1.01 1.46 2.03 2.92 3.06 4.39-1.21 2.77-2.53 5.5-4.01 8.14 4.12 3.02 8.46 5.8 12.13 9.39-1.99 2.42-4.42 4.59-5.71 7.49-.47 2.39-.24 4.84-.21 7.26-3.4-.84-6.79-1.69-10.16-2.61-1.81 1.79-3.34 4.24-5.97 4.87-2.73.73-5.42 1.62-7.96 2.86 1.11 1.92 2 4.46 4.44 5.02 4.01 1.83 8.23-.27 12.35.08.4 2.05.44 4.15.54 6.24-5.78.9-11.75.02-17.43 1.6 3.17 3 7.71 2.06 11.66 2.56 3.12.23 6.04 1.43 8.94 2.53-1.7 2-3.85 3.82-4.73 6.36-.16 1.81 0 3.62.06 5.44 8.32.98 16.69-.3 25.01.66.97 5.05 6.94 7.1 7.07 12.42-2.34.09-4.67.17-7 .23.63-1.81 1.28-3.62 1.93-5.42-2.19-.94-4.5-1.53-6.87-1.69-.21.57-.61 1.71-.82 2.28.69 1.22 1.37 2.45 2.07 3.68q-1.95.945-3.87 1.89-.495 1.8-.96 3.6c-2.93-1.83-6.16-3.12-9.07-4.97-1.58-3.21-1.67-6.91-2.32-10.37-2.79.48-5.44 1.51-7.83 3.02-3.58-.58-7.19-.93-10.8-1.12-.57 2.83-1.55 5.69-1.19 8.61.63 2.51 2.45 4.47 3.88 6.56-2.6.26-5.2.56-7.8.86-.16-50.3.11-100.6.01-150.9.49-18.99-.45-38 .82-56.95.17-5.91-.14-11.83.29-17.73 4.18-7.84 2.26-16.88 2.2-25.33-.38-5.71 1.38-11.27 1.32-16.97-.02-4.02-.46-8.03-.82-12.03"/><path fill="#53041e" d="M497.78 20.97c3.1-.11 6.19-.46 9.29-.56 6.16-.24 12.28.99 18.44.5 1.68 1.07 3.29 2.61 5.41 2.64 4.46.15 8.93.06 13.36.75.63 4.98 3.3 9.5 3.69 14.49-.5 3.25-4.13 2.66-6.53 2.82 2.44 4.26 3.38 9.12 3.42 13.98-1.7 1.29-3.39 2.6-5.07 3.91 1.63 1.88 3.39 3.65 5.4 5.14-.38 1.66.21 4.01-1.69 4.85-3.76 2.15-8.04 3.12-12.03 4.72 2.32 2.29 5.14 4.54 8.61 4.37 2.07-.42 3.83-1.73 5.7-2.68 1.69 3.78.18 7.9.47 11.85.32 4.56-2.12 9.07-.5 13.55.33 1.25.7 2.49 1.07 3.73-.99 2.72-1.79 5.58-1.38 8.5.87 8.37 1.01 16.82.15 25.2-.58 4.9.12 9.8.41 14.69-4.71.32-8.68-2.36-12.22-5.13 2.02-2.59 3.89-5.4 4.21-8.76-3.36-.04-6.72.03-10.08.13-1.15-3.01-3.04-6.02-2.87-9.32 1.79-2.43 3.62-4.83 5.08-7.48-2.71.07-5.41.33-8.09.69-1.41-.97-2.8-1.95-4.19-2.94l-7.42.99c-.16-1.14-.32-2.29-.47-3.44 1.54-2.25 3.03-4.54 4.46-6.87-3.55 1.02-7.04 2.24-10.45 3.64-1.97-.95-3.93-1.91-5.89-2.87-2.98 3.69-6.51 6.92-9.15 10.87-1.84 2.49-1.26 7.38 2.26 7.94 3.9.01 7.37-2.12 10.86-3.62 1.39.97 2.79 1.94 4.19 2.91-2 4.31-3.3 8.9-5.29 13.22 3.16 3.8 8.77 3.18 12.41 6.38 1.89-.47 3.77-.96 5.65-1.45 1.23 2.32 2.47 4.64 3.71 6.96 2.14.44 4.28.87 6.42 1.33 1.49 4.81 5.48 7.94 9.31 10.87 1-.85 2.01-1.72 3.02-2.58 1.44 1.58 2.87 3.15 4.31 4.74-.08 6.49 1.94 12.87 1.13 19.37-.66 5.36-1.01 10.79-.2 16.16 1.27 8.96-1.08 17.87-.72 26.84.34 7.42-.74 14.88.22 22.26-3.29.69-6.99 1.1-9.51 3.56-.66.87.08 1.91.95 2.29 2.43 1.29 5.07 2.11 7.66 3.07-1.33 8.49.09 17.04-.6 25.56-.31 5.19.47 10.38.11 15.58-1.65-5.1-3.53-10.12-5.1-15.25-2.72.36-5.47.06-8.11-.66 1-2.43 1.51-5.37 3.81-6.97 1.37-1.05 2.88-1.88 4.37-2.74-1.14-1.18-2.27-2.37-3.4-3.56 1.08-2.75 3.15-5.59 2.38-8.66-1.76-1.48-3.86-2.47-5.86-3.55-2.41 2.2-5.23 4.3-6.18 7.58-1.03 1.97-1.1 5.07-3.63 5.77-2.51.86-5.17 1.81-7.85 1.59-5.76-1.99-9.41-7.26-12.57-12.16-.92 1.23-1.83 2.47-2.74 3.7 1.89 2.08 5.09 4.15 4.07 7.43-.49 4.25-4.48 6.47-7.68 8.6 1.86 2.72 5.38 5.43 4.41 9.08-2.39 2.1-5.48 3.23-7.82 5.38-1.79 2.43-2.33 5.53-3.98 8.04-1.26.84-2.71 1.33-4.09 1.93-1.01.35-2.01.7-3.01 1.04-.67 1.35-1.32 2.71-1.99 4.07-.36-4.75.36-9.58 3.28-13.47-2.95-1.66-6.05-3.02-8.98-4.66-1.92-2.51-2.64-5.68-3.75-8.59-1.6.52-3.2 1.05-4.8 1.57-.27-.71-.82-2.12-1.09-2.83 2.39-1.51 5.04-2.54 7.83-3.02.65 3.46.74 7.16 2.32 10.37 2.91 1.85 6.14 3.14 9.07 4.97q.465-1.8.96-3.6 1.92-.945 3.87-1.89c-.7-1.23-1.38-2.46-2.07-3.68.21-.57.61-1.71.82-2.28 2.37.16 4.68.75 6.87 1.69-.65 1.8-1.3 3.61-1.93 5.42 2.33-.06 4.66-.14 7-.23-.13-5.32-6.1-7.37-7.07-12.42-8.32-.96-16.69.32-25.01-.66-.06-1.82-.22-3.63-.06-5.44.88-2.54 3.03-4.36 4.73-6.36-2.9-1.1-5.82-2.3-8.94-2.53-3.95-.5-8.49.44-11.66-2.56 5.68-1.58 11.65-.7 17.43-1.6-.1-2.09-.14-4.19-.54-6.24-4.12-.35-8.34 1.75-12.35-.08-2.44-.56-3.33-3.1-4.44-5.02 2.54-1.24 5.23-2.13 7.96-2.86 2.63-.63 4.16-3.08 5.97-4.87 3.37.92 6.76 1.77 10.16 2.61-.03-2.42-.26-4.87.21-7.26 1.29-2.9 3.72-5.07 5.71-7.49-3.67-3.59-8.01-6.37-12.13-9.39 1.48-2.64 2.8-5.37 4.01-8.14a893 893 0 0 1-3.06-4.39c.45-1.06.91-2.12 1.37-3.18-1.2-.6-2.41-1.2-3.61-1.8-.32-1.47-.64-2.93-.96-4.39-1.64-1.33-3.26-2.67-4.88-4.01 1.16-1.24 2.31-2.48 3.46-3.73 1.1 3.08 2.68 6.07 5.48 7.93 1-3.87.17-7.8-.56-11.63 4.52-1.86 9.75-.94 14.04-3.52-1.65-1.13-3.27-2.31-4.89-3.47 2.66-.39 5.33-.72 8.03-.72.85-.6 1.7-1.21 2.55-1.81-.87-1.14-1.67-2.33-2.62-3.4-5.09-.12-10.33 2.89-15.25.44-3.21-1.05-4.26-4.68-3.92-7.72.39-4.24.65-8.58 1.97-12.64 2.46-1.81 5.33-2.97 8.07-4.29-3.58-3.94-8.08-6.98-11.21-11.33-2.26-3.24-5.31-5.77-8.56-7.96 1.74-2.95 4.72-4.74 6.98-7.2 2.91-6.85.22-16.21 6.81-21.31 4.25-1.03 8.5 2.73 12.76 1.01 2.09-.63 3.54-2.36 5.13-3.75-2.51-2.47-5.56-4.67-7.03-7.97-.41-2.26.08-4.54.33-6.79-2.2.34-5.04 1.27-6.41-1.18-.46-5.06 1.6-9.94 2.44-14.88 2.52-.19 5.47.32 7.47-1.61 2.87-2.49 5.98-4.67 8.86-7.14 2.75-3 2.36-7.41 2.78-11.18-1.73-.21-3.45-.42-5.17-.64l-.8-1.92c1.83-1.01 3.66-2.01 5.49-3.04-3.19-.66-6.39-1.29-9.53-2.12-1.37-1.21-2.28-2.83-3.32-4.31 5.85-3.11 12.57-2.6 18.95-3.29-2.38-3.21-6.22-4.42-9.88-5.49-.51-2.99-.67-6.07.23-9.02l.96-.01v6.09c3.8 1.4 7.47 3.11 11.09 4.94-.69 2.87-1.59 5.74-1.68 8.71 2.4 3.13 6.03 5.44 9.87 6.35 2.34.31 3.34-2.11 4.39-3.72 1.91-3.15 3.82-7.07 7.76-7.99 1.95.61 3.63 1.82 5.38 2.85 2.35-2.48 4.89-5.78 3.74-9.41-.66-2.74-4-1.88-6.05-2.3-2.75.3-4.42-2.05-6.13-3.77-1.68.99-3.36 1.98-5.04 2.96 1.68-.12 3.36-.22 5.05-.31-3.08 5.58-10.55 7.08-16.11 4.69-1.36-1.81-1.9-4.07-3.1-5.97-1.97-1.75-4.66-2.35-7.11-3.13"/><path fill="#420414" d="M525.51 20.91c8.52-1.33 17.03 1.1 25.58.22-.26 2.6-.44 5.21-.5 7.83-.2 24.68-.22 49.36-.21 74.04-1.19.68-2.38 1.36-3.56 2.03-.37-1.24-.74-2.48-1.07-3.73-1.62-4.48.82-8.99.5-13.55-.29-3.95 1.22-8.07-.47-11.85-1.87.95-3.63 2.26-5.7 2.68-3.47.17-6.29-2.08-8.61-4.37 3.99-1.6 8.27-2.57 12.03-4.72 1.9-.84 1.31-3.19 1.69-4.85-2.01-1.49-3.77-3.26-5.4-5.14 1.68-1.31 3.37-2.62 5.07-3.91-.04-4.86-.98-9.72-3.42-13.98 2.4-.16 6.03.43 6.53-2.82-.39-4.99-3.06-9.51-3.69-14.49-4.43-.69-8.9-.6-13.36-.75-2.12-.03-3.73-1.57-5.41-2.64"/><path fill="#480613" d="M274.84 21.91c10.7-.78 21.45-.68 32.16-.17 22.89.36 45.79-1.41 68.65.09 6.59.22 13.2-.23 19.76.57 0 18.2-.03 36.4-.01 54.6-.01 5.37-.82 10.72-.65 16.1 1.05 16.7-.52 33.42-.06 50.14-.79-7.18-.24-14.44-1.22-21.6-.9 3.08-1.69 6.2-2.66 9.26-1.63 1.25-3.82 1.34-5.77 1.24-3.01-.11-4.88-2.77-6.88-4.64-.58 1.34-1.16 2.69-1.74 4.03-24.25-24.4-48.72-48.59-72.51-73.44-4.56-4.6-9.38-8.94-13.69-13.8 1.45-5.41-4.63-7.46-6.93-11.36-2.5-3.91-5.25-7.65-8.45-11.02"/><path fill="#610f2a" d="M495.72 20.98c.52 0 1.55-.01 2.06-.01 2.45.78 5.14 1.38 7.11 3.13 1.2 1.9 1.74 4.16 3.1 5.97 5.56 2.39 13.03.89 16.11-4.69-1.69.09-3.37.19-5.05.31 1.68-.98 3.36-1.97 5.04-2.96 1.71 1.72 3.38 4.07 6.13 3.77 2.05.42 5.39-.44 6.05 2.3 1.15 3.63-1.39 6.93-3.74 9.41-1.75-1.03-3.43-2.24-5.38-2.85-3.94.92-5.85 4.84-7.76 7.99-1.05 1.61-2.05 4.03-4.39 3.72-3.84-.91-7.47-3.22-9.87-6.35.09-2.97.99-5.84 1.68-8.71-3.62-1.83-7.29-3.54-11.09-4.94z"/><path fill="#642732" d="M176.09 23.87c2.61-2.07 5.81-1.33 7.6 1.33-2.6 1.94-5.37.28-7.6-1.33"/><path fill="#f8ecec" d="M40.1 35.31c.77-.21 2.3-.62 3.07-.83 4.4 3.9 8.93 7.66 13.34 11.56C72.62 60.4 88.9 74.57 105.19 88.73c7.07 5.32 13.14 11.81 19.92 17.48 7.32 6.92 15.36 13.02 22.6 20.03 9.04 7.5 17.76 15.38 26.52 23.2 4.45 3.64 8.74 7.47 12.96 11.37 26.35 22.4 52 45.62 78.41 67.96 5.9 5.62 12.02 11.01 18.22 16.32 28.67 24.5 56.99 49.41 85.48 74.13 4.82 3.84 9.06 8.35 13.91 12.18l.3 4.64c-5.46-3.23-9.77-7.9-14.22-12.33-4.03-4.12-9.57-6.29-13.63-10.37-3.31-2.99-5.93-6.94-10.12-8.8-2.35-1.21-5.08-2.09-6.63-4.38-2.15-2.89-4.23-5.91-7.25-7.96-11.08-7.72-20.18-17.85-30.97-25.94-3.29-2.07-7.28-2.5-10.93-3.66.17-1.95 1.22-4.26-.32-5.93-2.79-3.54-5.98-6.76-9.33-9.77-2.69-2.47-6.69-2.41-9.53-4.63-3.89-3.05-8.12-6.04-10.27-10.67-1.11-3.05-4.54-3.26-7.25-3.88-1.7-3.97-4.07-7.77-8-9.86-7.68-4.48-12.08-12.57-19.1-17.84-4.75-3.56-8.9-7.82-13.32-11.76-2.77-2.58-7.04-3.28-9.04-6.7-1.77-2.18-2.77-5.63-5.86-6.22-2.03-.9-5.35-.44-6.07-3.09-1.02-3.31-3.43-5.76-6.15-7.76-.81 1.07-1.61 2.14-2.41 3.21-.63-.83-1.26-1.66-1.9-2.48 1.26-.75 2.53-1.5 3.79-2.25-4.89-3.08-9.6-6.52-13.64-10.68-3.93-5.48-9.58-9.12-15.04-12.88-4.71-3.29-8.64-7.51-12.92-11.3-1.05.79-2.09 1.58-3.14 2.37-1.33-1.42-2.63-2.87-3.91-4.33.22 1.96-.13 4.36 1.6 5.77 2.92 2.8 6.55 4.7 10.03 6.72-2.43.04-4.85.11-7.27.23 2.62 3.66 6.25 6.34 9.75 9.09-2.6 1.41-5.23 2.73-7.89 3.99-.04-2.83-.14-5.67-.41-8.49-1.77 1.81-4.02 3.48-4.6 6.09-1.67 8.54-.37 17.26.52 25.8-.14 5.61-.48 11.32 1.68 16.65 3.43-1.44 6.87-2.87 10.41-4.02-.77 3.54-3.86 5.26-6.91 6.61 1.79 1.77 3.57 3.56 5.38 5.32-2.16 1.34-4.13 2.95-6.02 4.64 3.02 1.61 5.77 3.68 7.88 6.4-1.44.78-2.87 1.56-4.3 2.34-1.95-3.7-3.42-7.61-5.2-11.38-.64-1.62-2.29-2.35-3.6-3.32-.83 6.64-1.39 13.44.24 20.01 1.01 3.14-.96 6.06-1.09 9.15 1.74 15.34 1.22 30.86.53 46.27-.46 9.7 2.4 19.24 1.33 28.95.54 9.81-3.21 19.34-1.83 29.14.34 4.36 1.93 8.46 3.74 12.39-4.39 7-2.98 15.56-3.64 23.39-.41 4.23-.16 8.57 1.92 12.39-3.15 2.78-1.59 6.94-1.28 10.53.57 4.46-.63 9.63 2.97 13.11-1.73 1.9-3.92 3.79-3.92 6.59-.29 5.5.74 10.99.4 16.5-.34 4.34 1.83 8.49 1.11 12.82-.49 3.39-1.16 6.77-1.2 10.21-.24 5.26 1.46 10.52.22 15.75-1.14 4.59.04 9.22.75 13.77.74 4.48-.49 8.94-.5 13.42.14 17.51-.13 35.04-1.34 52.51-1.03-.03-2.07-.05-3.09-.05-.64-22.42-.03-44.86-.21-67.29.09-86.05.01-172.1.14-258.16.12-25.68-.3-51.37.07-77.06.06-2.29-.15-4.79-2.07-6.33-1.65-1.31-3.34-2.57-4.96-3.91-4.78-4.03-9.8-7.78-14.31-12.12-7.92-7.44-16.68-13.92-24.48-21.49-3.19-2.91-6.55-5.63-9.92-8.34-4.34-3.91-8.75-7.75-13.07-11.68.45-1.01.91-2.02 1.37-3.03 3.13 1.74 6.47 3.02 9.84 4.17.51 2.12.2 5.05 2.72 5.89 5.15 2.45 9.48 7.19 15.56 7-.7-3.2-4.02-4.15-6.57-5.44l4.46-.33c-2.75-3.81-5.33-7.75-8.27-11.41-1.94-2.58-5.24-3.32-8.09-4.44-1.17-2.75-1.92-5.98-4.48-7.84-3.43-2.55-7.14-4.81-9.93-8.11-3.53-4.13-7.21-8.17-11.55-11.46-3.34-2.51-6.3-5.46-8.87-8.75"/><path fill="#e8e3dd" d="M23.37 46.55c.86-.55 1.73-1.1 2.6-1.65.66.54 1.32 1.08 1.97 1.64-.55.36-1.66 1.09-2.22 1.45.44 24.34-.5 48.69.39 73.02-.82 20.65-.23 41.32-.29 61.97.57 9 .03 18.01.05 27.01.41 12.43.59 24.87.22 37.3-.77-3.59-1.76-7.19-1.68-10.9-.06-4.58 1.35-9.69-1.83-13.59-.73 3.49-1.41 6.99-2.23 10.46-1.91-4.57-2.54-9.67-1.4-14.51.86-3.44 2.09-6.77 3.13-10.15.41.45 1.22 1.34 1.63 1.78-.68 2.72-1 5.51-.99 8.31 2.93-2.8 2.27-7.03 2.41-10.68-.1-2.81.16-5.73-.71-8.44-1.35-1.54-3.34-2.48-4.34-4.32 1.19-1.86 2.68-3.53 3.63-5.53.05-1.55-.23-3.09-.42-4.61-4.41 3.65-8.45 8.75-14.71 8.74.27-3.36.4-6.73.68-10.09-1.34.29-2.68.58-4.03.87.51 1.65.96 3.31 1.36 4.99-2.2.23-4.39.45-6.59.66V72.26c1.49.47 3 .84 4.46 1.39.73 1.37.41 3 .47 4.5 3.05-.34 6.12-.16 9.11.48 1.27-3.76-1.07-7.1-1.87-10.63-.69-2.72 1.82-4.45 3.43-6.15-2.3-3-5.54-4.99-8.58-7.12 2.66.19 5.25.87 7.74 1.83 2.97-2.4 6.39-4.23 10.24-4.66-.54-1.78-1.09-3.57-1.63-5.35"/><path fill="#b6989d" d="M25.72 47.99c.56-.36 1.67-1.09 2.22-1.45q.945.915 1.83 1.89c-.42.42-1.24 1.26-1.66 1.68l-.16 1.65c-.18 2.09-.29 4.18-.31 6.27.33 41.09-.55 82.19.23 123.29-.76 9.57.97 19.13-.08 28.69 1.08 24.63.33 49.33.55 73.99-.2 13.33.02 26.67-.04 40 .1 8 .32 16.02-.5 24-.85 9.34 1.28 18.67.14 28-.51 9.32-.19 18.67-.16 28.01.78 6.99-.39 14 .42 20.99.1 7.67-1.04 15.34.02 23 .17 31.89.31 63.8.07 95.69l.03.85c28.23.44 56.46.17 84.69.31 5.83.28 11.69.54 17.49-.22.09-51.21.41-102.43.23-153.63.13-37.01-.13-74.01.12-111 .62-15.33.15-30.68.2-46.02.26-9.32.01-18.65 0-27.98-.64-14.98-.02-29.98-.2-44.97-.21-8.14 1.11-16.33-.2-24.43 1.92 1.54 2.13 4.04 2.07 6.33-.37 25.69.05 51.38-.07 77.06-.13 86.06-.05 172.11-.14 258.16.18 22.43-.43 44.87.21 67.29-30.23.8-60.48.04-90.72.17-4.82-.13-9.71.55-14.47-.39-1.4-.2-1.89-1.4-1.74-2.67.48-28.51.88-57.03.39-85.54-.68-10.67.25-21.34-.03-32.01.12-12-.15-24.01-.37-36.01-.16-6.24.5-12.48.22-18.72-.32-10.43.08-20.85.15-31.28-.46-12.66-.46-25.35.09-38.01-.03-7.66-.84-15.33-.02-22.98.02-10.24.13-20.48-.13-30.71.37-12.43.19-24.87-.22-37.3-.02-9 .52-18.01-.05-27.01.06-20.65-.53-41.32.29-61.97-.89-24.33.05-48.68-.39-73.02"/><path fill="#1f0203" d="M28.11 50.11c.42-.42 1.24-1.26 1.66-1.68 1.83 2.09 3.73 4.12 5.85 5.92 9.59 8.05 18.75 16.59 28.29 24.71 4.32 3.93 8.73 7.77 13.07 11.68-5.49.78-8.74-4.23-12.56-7.17-10.6-7.41-18.37-18.99-30.92-23.47-.14 2.82.25 5.79-.8 8.46-1.08 1.02-2.32 1.85-3.5 2.73-.26-6.52-.03-13.08-1.25-19.53z"/><path fill="#3f070f" d="M27.95 51.76c1.22 6.45.99 13.01 1.25 19.53 1.18-.88 2.42-1.71 3.5-2.73 1.05-2.67.66-5.64.8-8.46 12.55 4.48 20.32 16.06 30.92 23.47 3.82 2.94 7.07 7.95 12.56 7.17 3.37 2.71 6.73 5.43 9.92 8.34 7.8 7.57 16.56 14.05 24.48 21.49 4.51 4.34 9.53 8.09 14.31 12.12 2.04 2.67 3.89 5.75 3.76 9.24.1 6.28-.19 12.56.15 18.84-.3 2.67-1.24 5.2-2.12 7.72-1.5-2.71-3.01-5.42-4.56-8.1-1.1 3.47-1.9 7.02-2.48 10.6-.81-3.34-1.86-6.7-1.82-10.18.03-3.34 1.35-6.46 2.42-9.57 1.38-.42 2.76-.85 4.15-1.27-1.52-.66-3.03-1.31-4.54-1.97.4-1.75.78-3.51 1.15-5.27-5.3.04-7.12 5.58-11.03 8.07-3.95 1.78-8.52-.29-12.51 1.22-.95 1.63-1.58 3.42-2.3 5.16-2.45.39-5.25.14-7.24 1.86 1.52 3.43 5.89 4.79 6.74 8.59 1.97 6.21-2.89 12.23-.67 18.46-1.94 1.48-4.28 2.02-6.7 1.75.54-2.72 1.14-5.47 1.05-8.25-.78-2.64-2.71-4.75-4.23-6.99-.91 3.56-1.64 7.46.58 10.71-2.27.73-4.65 1.26-6.7 2.53-1.39 2.94-1.53 6.29-2.73 9.31-2.54 2.11-5.5 3.65-8.27 5.45 1.21.93 2.42 1.87 3.63 2.81 2.1-.41 4.19-.81 6.28-1.21.18 2.82.1 5.7.82 8.46.94 2.35 2.92 4.14 3.81 6.51.25 1.91.01 3.83-.09 5.75 3.98 4.53 8.15 10.48 14.95 10.07l-.66 4.37c-3.85.77-7.92 1.01-11.49 2.75-2.21 1.19-1.81 3.96-2 6.06-1.19-.46-2.38-.99-3.66-1.17-1.17.53-2.26 1.22-3.37 1.87 1.13 3.27 2.74 6.39 5.27 8.8 3.47 3.16 3.65 8.08 4.41 12.39-5.11-.1-9.22 2.95-13.51 5.23-4.65 2.18-6.89-4.13-9.56-6.75a126 126 0 0 1-4.83 4.12c1.62 2.33 3.21 4.68 4.72 7.08-2.91 5.56-2.73 11.99-1.57 17.99 6.59.86 14.08-.26 19.64 4.13-.61.26-1.81.77-2.41 1.03-1.59-.8-3.11-1.82-4.86-2.22-1.36.26-2.6.87-3.89 1.36l.33 4.16c-4.07.29-8.15-.19-12-1.59-.34-1.48-.68-2.96-1.03-4.44-2.96-2.34-7.38-4.17-8.08-8.28.71-2.37 2.47-4.25 3.37-6.53.31-2.48-.61-4.96-.2-7.42 1.04-2.31 2.93-4.07 4.56-5.96-1.69-2.64-2.05-5.66-.36-8.4 2.28.29 4.57.57 6.85.85l1.36-1.24c-1.73-.72-3.46-1.44-5.19-2.15 1.25-2 2.51-4.01 3.77-6-5.97.14-11.92-.46-17.88-.83-2.21-.3-3.88 1.38-5.6 2.47.8 1.15 1.59 2.31 2.39 3.47-3.38.11-6.75.63-9.94 1.81.38-10.4-.41-20.81-.29-31.19.57 2.65 1.33 5.26 2.08 7.87 2.08-.79 4.12-2 6.4-2.03 2.67.22 5.2 1.19 7.75 1.98.47-3.65 1.12-7.27 1.91-10.86 2.11-.98 4.21-1.96 6.32-2.94.03-1.23.07-2.46.11-3.68 1.61-1.46 3.35-2.83 4.62-4.6 1.07-2.97-1.09-6.42-4.05-7.24-2.46-.99-3.56 2.26-5.24 3.42-3.72.08-6.9-2.34-10.01-4.08 4.45-2.01 9.92-.99 13.65-4.54-3.17-3.81-6.71-7.28-10.38-10.59 1.88-2.09 4.22-4.27 4.11-7.34.43-3.11-1.16-6.94-4.58-7.43-3.09-.24-7.09-.41-9.06 2.46-1.03 1.28-1.89 2.69-2.69 4.13-.08-8.48-1.63-17.06.2-25.45.6-3.9 1.78-8.38-.44-11.98-.63-1.56-2.54-.9-2.69.54-1.84 11.55 1.2 23.47-1.62 34.92-.78-41.1.1-82.2-.23-123.29.02-2.09.13-4.18.31-6.27"/><path fill="#5f0c29" d="M507.85 66.8c1.43-5.24 5.85-9.74 11.22-10.81 2.52-.51 4.15 1.9 5.95 3.2-1.84 3.66-5.06 6.15-8.1 8.74-2.09 1.54-1.83 4.26-1.82 6.54q2.475 1.26 4.95 2.55c-.43.78-.85 1.57-1.27 2.35-2.51.25-5.05.75-7.56.37-3.19-1.01-5.62-3.44-8.21-5.43 2.28-2.02 4.1-4.51 4.84-7.51"/><path fill="#3e020c" d="M231.81 61.44c1.38-.48 2.76-1.01 4.19-1.36 4.01 1.31 7.3 4.12 10.99 6.11-.58 1.62-2.35 3.3-1.3 5.05 1.55.61 3.16 1.01 4.76 1.46.65-1.81 1.3-3.62 1.94-5.43 2.94-1.14 5.93-2.17 8.97-3.03.68 3.11 1.45 6.19 2.26 9.27 6.52.76 13.01 2.11 19.08 4.69-3.64 2.91-8.25 1.14-12.42 1.54-2.86 1.31-5.36 3.66-6.82 6.44-.31 2.53.6 4.99 1.09 7.44 1.23 4.7.9 9.58 1.19 14.39 4.69-2.38 7.5-8.28 13.26-8.22.14 1.93 1.2 4.24-.34 5.89-3.34 4.03-7.74 7.12-10.56 11.62 4.81-1.86 9.06-6.5 14.47-5.91 2.59 2.66 2.61 7.05 5.17 9.86 2.64 3.06 7.11 5.28 7.21 9.86.93 5.71-8.88 3.64-8.93 8.98-.44 4.06 2.31 7.36 4.14 10.7 1.85 3.09 2.54 6.71 4.27 9.85 1.94 1.56 4.56 1.98 6.66 3.29.05 2.4-.71 4.81-.28 7.2 1.69 1.34 3.64 2.27 5.52 3.3-1.72.88-3.44 1.78-5.14 2.7-.8-1.5-1.61-2.99-2.4-4.49-1.78.24-3.56.49-5.34.72-.22-.24-.67-.74-.89-.99 1.24-3.49.85-7.13-.8-10.42-6.41 1.52-11.51 5.77-16.76 9.48 1.65 4.22 3.41 8.41 5.08 12.63-3.33-.98-6.53-2.66-10.02-2.92-5.13.9-11.01 2.25-13.84 7.09-1.93 3.11-5.98 2.93-8.99 4.33-.63-.3-1.9-.91-2.53-1.21-.2-.51-.6-1.53-.79-2.03.63-.4 1.89-1.2 2.52-1.59-4.95-2.34-10.18-4.17-14.69-7.35 2.48-1.91 5.27-3.5 7.36-5.86.16-1.52 0-3.05-.03-4.57-6.31.02-12.3 2.33-18.56 2.74-2.06.22-3.94-.83-5.79-1.56 1.86-6.06 8.92-8.47 14.72-7.86 2.2.29 4.29-.44 6.25-1.34-1.9-.64-3.79-1.3-5.64-2.07-4.12-4.27-8.72-8.14-13.94-10.99.47-1.53.95-3.06 1.42-4.59-3.56-.54-7.36-.54-10.63-2.2-2.73-1.91-2.33-5.63-2.81-8.54-2.63-1.52-5.07-3.35-7.42-5.28 2.86-3.58 5.42-7.87 9.64-9.99 4.59-.48 9.16.75 13.7 1.27-.63-1.56-1.25-3.12-1.87-4.69-1.87.61-3.73 1.35-5.7 1.52-2.03.25-2.96-1.96-4.16-3.17 2.85-4.83 8.06-7.35 12.65-10.21 2.49-1.68 5.3.34 7.77 1.05a48.3 48.3 0 0 1-8.18 4.45c2.66 1.1 5.63 3.11 8.54 1.59 1.53-.88 3.74-2.71 2.56-4.64-2.37-4.89-11.2-4.74-10.91-11.2q-3.27-.81-6.6-1.38c-.04-1.07-.08-2.13-.11-3.19 2.56-.13 5.13-.26 7.69-.38 1.36-3.58 2.75-7.14 4.12-10.72l-5.32-.6c1.34-1.74 2.67-3.48 3.99-5.23 2.37.87 4.73 2.11 7.32 2.12 2.68-.4 5.71-2.64 5.1-5.68-.57-3.16-3.19-5.35-5.09-7.74"/><path fill="#420711" d="M168.61 94.61c3.91-3.09 6.95-7.42 11.86-9.05.31 3.97-1.05 7.73-3.3 10.95 4.19.34 7.77 2.67 10.56 5.71-1.33 2.85-4.14 2.47-6.71 1.96-3 4.5-5.5 9.64-5.78 15.12-.12 3.01 2.92 4.38 4.95 5.96-1.6 5.1-1.43 10.78-4.74 15.26 2.34-1.06 4.68-2.12 6.98-3.26.64.6 1.29 1.2 1.94 1.8-2.02 3.77-5.82 5.79-9.55 7.51-.2.95-.4 1.91-.59 2.87-8.76-7.82-17.48-15.7-26.52-23.2-7.24-7.01-15.28-13.11-22.6-20.03.54-.16 1.61-.47 2.15-.63-.01-1.48-.23-3.01.15-4.46 1.01-1.36 2.3-2.48 3.51-3.66 2.42 1.22 4.81 2.6 7.49 3.17 3.43.3 6.7-1.43 10.13-1.21 2.02 1.06 3.4 2.97 4.97 4.57 5.61-2.09 10.43-5.71 15.1-9.38"/><path fill="#490b1d" d="M546.82 105.03c1.18-.67 2.37-1.35 3.56-2.03-.03 24.33-.03 48.66-.07 73 .23 18-.64 36-.13 54 .11 11.9-1.1 23.8-.24 35.69-.75 17.43-.1 34.88-.38 52.32-.21 5.56.45 11.16-.25 16.69-1.63 3.64-5.29 5.8-8.07 8.5.43-.78.87-1.55 1.3-2.33-2.47-2.95-4.43-6.28-5.9-9.83-1.21-.3-2.42-.61-3.62-.9 2.45-1.31 4.89-2.96 7.75-3.14 1.59 1.37 2.9 3.05 4.24 4.68.73-3.95 2.4-8.27.15-12.04-.36-.74-.73-1.48-1.09-2.2-3.29 1.67-6.96 3.24-10.6 1.59 3.06-4.19 9.69-5.24 10.8-10.77.31-1.29.48-2.62.54-3.94.36-5.2-.42-10.39-.11-15.58.69-8.52-.73-17.07.6-25.56.95-1.12 1.9-2.24 2.86-3.35-.68-1.85-1.38-3.69-1.96-5.57-.96-7.38.12-14.84-.22-22.26-.36-8.97 1.99-17.88.72-26.84-.81-5.37-.46-10.8.2-16.16.81-6.5-1.21-12.88-1.13-19.37-.07-5.41.19-10.81.23-16.21-.29-4.89-.99-9.79-.41-14.69.86-8.38.72-16.83-.15-25.2-.41-2.92.39-5.78 1.38-8.5"/><path fill="#5d0827" d="M503.96 114.93c3.41-1.4 6.9-2.62 10.45-3.64-1.43 2.33-2.92 4.62-4.46 6.87.15 1.15.31 2.3.47 3.44l7.42-.99c1.39.99 2.78 1.97 4.19 2.94 2.68-.36 5.38-.62 8.09-.69-1.46 2.65-3.29 5.05-5.08 7.48-.17 3.3 1.72 6.31 2.87 9.32 3.36-.1 6.72-.17 10.08-.13-.32 3.36-2.19 6.17-4.21 8.76 3.54 2.77 7.51 5.45 12.22 5.13-.04 5.4-.3 10.8-.23 16.21-1.44-1.59-2.87-3.16-4.31-4.74-1.01.86-2.02 1.73-3.02 2.58-3.83-2.93-7.82-6.06-9.31-10.87-2.14-.46-4.28-.89-6.42-1.33-1.24-2.32-2.48-4.64-3.71-6.96-1.88.49-3.76.98-5.65 1.45-3.64-3.2-9.25-2.58-12.41-6.38 1.99-4.32 3.29-8.91 5.29-13.22-1.4-.97-2.8-1.94-4.19-2.91-3.49 1.5-6.96 3.63-10.86 3.62-3.52-.56-4.1-5.45-2.26-7.94 2.64-3.95 6.17-7.18 9.15-10.87 1.96.96 3.92 1.92 5.89 2.87"/><path fill="#390510" d="M390.81 130.9c.97-3.06 1.76-6.18 2.66-9.26.98 7.16.43 14.42 1.22 21.6.08 1.86.18 3.72.27 5.58-.98-.28-1.95-.56-2.92-.84-4.73-5.93-10.39-10.99-15.62-16.45.58-1.34 1.16-2.69 1.74-4.03 2 1.87 3.87 4.53 6.88 4.64 1.95.1 4.14.01 5.77-1.24"/><path fill="#edeae4" d="M136.35 126.15c1.28 1.46 2.58 2.91 3.91 4.33 1.05-.79 2.09-1.58 3.14-2.37 4.28 3.79 8.21 8.01 12.92 11.3 5.46 3.76 11.11 7.4 15.04 12.88-2.21 1.32-4.42 2.66-6.62 4 .33 1.65.67 3.31.87 4.99.81 3.27-2.09 5.68-3.01 8.58.23 1.11.63 2.18.99 3.26 3.09-1.34 6.63-3.91 10.07-2.2 2.2 2.16 4.09 4.65 6.66 6.42-3.51 1.04-7.15 1.4-10.75 1.92-1.34 1.41.06 3.04 1.18 4.04 2.36 2.25 5.69.43 8.4.05.62 4.6-1.09 10.72-6.4 11.45.29 4.76.75 9.54.06 14.29-1.61-3.26-3.3-6.47-5.25-9.53-1.95 3.66-.59 8.1 2.61 10.55 3.23 1.29 6.72 1.78 10.09 2.61-1.54 4.28-4.18 8.11-8.18 10.43-.25 1.61-.49 3.23-.73 4.86-1.64 1.04-3.26 2.1-4.87 3.18-1.14 3.28-3 6.23-5.29 8.82 2.17.93 4.34 1.88 6.51 2.84l-1.38 2.19c.74.3 1.47.6 2.21.91-.12 3.37.5 6.95-.71 10.16-4.28 5.17-10.25 8.58-16.14 11.64 2.58 1.44 5.43.88 8.09 0-.71 4.43 1.76 8.35 2.55 12.57.49 2.2 1.27 4.71 3.46 5.76 2.95.72 5.98 1.19 8.72 2.56-.09-6.64-.5-13.52 2.05-19.8.87 4.79 1.53 9.62 2.13 14.44-.24 31.58.29 63.17-.18 94.75-.17 4.43-1.01 8.87-.4 13.3-.66.13-1.97.4-2.62.53 4.67 7.95 12.42 13.38 18.31 20.36 5.3 6.39 11.97 11.44 17.06 18 2.34 2.59 5.67 4.1 7.76 6.94 2.03 2.78 3.93 5.66 5.61 8.67 1.7 3.07 1.54 6.7 1.74 10.1-5.35-3.67-9.12-9.05-12.12-14.71-5.59-1.23-9.45-5.68-13.57-9.29q-.93 1.065-1.83 2.13c.6 1.43 1.18 2.88 1.86 4.29-5.43-5.45-11.12-10.66-16.16-16.48-1.51-2.28-3.8-3.77-6.29-4.79 1.2 19.29.32 38.62.63 57.93.01 19.34-.14 38.67-.16 58 0 3.95-.49 7.87-.98 11.79 6.36 2.11 13.1 1.25 19.67 1.43 6.76.14 13.54.28 20.29-.4 22.89.8 45.81.2 68.71.56 6.91.19 13.83.17 20.74.05-.08-1.02-.15-2.04-.23-3.05 2.39-1.3 4.76-2.62 7.12-3.97-.34 2.41-.72 4.81-.9 7.24-.45 2.38 1.7 4.04 2.48 6.09-1.05 2.7-2.94 4.98-4.53 7.38-2.01-1.72-4.01-3.45-6-5.18-2.15 1.98-4.22 4.05-6.36 6.05H0V340.3c2.32.12 4.64.24 6.97.37-.14 4.22-2.77 7.82-2.94 12.04 1.92-.19 4.52 1.07 5.85-.86 2.37-2.45.99-5.96.48-8.83 1.87-2.28 4.01-4.48 7.05-5.01.1.69.31 2.08.41 2.78-.87.79-1.75 1.59-2.62 2.39 1.67.83 3.32 1.69 4.98 2.56 1-1.17 2-2.35 3.01-3.51 1.2 4.83 1.49 9.83.8 14.77-.65 4.55 1.02 8.91 2.01 13.27.28 6.24-.38 12.48-.22 18.72.22 12 .49 24.01.37 36.01.28 10.67-.65 21.34.03 32.01.49 28.51.09 57.03-.39 85.54-.15 1.27.34 2.47 1.74 2.67 4.76.94 9.65.26 14.47.39 30.24-.13 60.49.63 90.72-.17 1.02 0 2.06.02 3.09.05 1.21-17.47 1.48-35 1.34-52.51.01-4.48 1.24-8.94.5-13.42-.71-4.55-1.89-9.18-.75-13.77 1.24-5.23-.46-10.49-.22-15.75.04-3.44.71-6.82 1.2-10.21.72-4.33-1.45-8.48-1.11-12.82.34-5.51-.69-11-.4-16.5 0-2.8 2.19-4.69 3.92-6.59-3.6-3.48-2.4-8.65-2.97-13.11-.31-3.59-1.87-7.75 1.28-10.53-2.08-3.82-2.33-8.16-1.92-12.39.66-7.83-.75-16.39 3.64-23.39-1.81-3.93-3.4-8.03-3.74-12.39-1.38-9.8 2.37-19.33 1.83-29.14 1.07-9.71-1.79-19.25-1.33-28.95.69-15.41 1.21-30.93-.53-46.27.13-3.09 2.1-6.01 1.09-9.15-1.63-6.57-1.07-13.37-.24-20.01 1.31.97 2.96 1.7 3.6 3.32 1.78 3.77 3.25 7.68 5.2 11.38 1.43-.78 2.86-1.56 4.3-2.34-2.11-2.72-4.86-4.79-7.88-6.4 1.89-1.69 3.86-3.3 6.02-4.64-1.81-1.76-3.59-3.55-5.38-5.32 3.05-1.35 6.14-3.07 6.91-6.61-3.54 1.15-6.98 2.58-10.41 4.02-2.16-5.33-1.82-11.04-1.68-16.65-.89-8.54-2.19-17.26-.52-25.8.58-2.61 2.83-4.28 4.6-6.09.27 2.82.37 5.66.41 8.49 2.66-1.26 5.29-2.58 7.89-3.99-3.5-2.75-7.13-5.43-9.75-9.09 2.42-.12 4.84-.19 7.27-.23-3.48-2.02-7.11-3.92-10.03-6.72-1.73-1.41-1.38-3.81-1.6-5.77"/><path fill="#6f4751" d="M129.45 141.93c.13-3.49-1.72-6.57-3.76-9.24 1.62 1.34 3.31 2.6 4.96 3.91 1.31 8.1-.01 16.29.2 24.43.18 14.99-.44 29.99.2 44.97.01 9.33.26 18.66 0 27.98-.05 15.34.42 30.69-.2 46.02-.25 36.99.01 73.99-.12 111 .18 51.2-.14 102.42-.23 153.63-5.8.76-11.66.5-17.49.22-28.23-.14-56.46.13-84.69-.31l-.03-.85c3.52-.25 7.05-.45 10.58-.46 11.04.12 22.09 0 33.11.9 18.95-.13 37.91.43 56.86-.08-.04-.71-.1-2.12-.13-2.83.13-11.41.27-22.82.13-34.23-.36-14.33.69-28.65.48-42.98-.25-10.13.27-20.26-.07-30.38.35-63.56-.02-127.12.21-190.68 1.44-19.28.65-38.62.51-57.93.13-8.09-.13-16.17-.37-24.25-.34-6.28-.05-12.56-.15-18.84"/><path fill="#440613" d="M199.06 144c.09-2.27 1.17-4.28 2.24-6.22 1.14 2.13 2.01 4.49 3.71 6.26 3.09 2.76 7.29 3.55 11.1 4.83 5.22 2.85 9.82 6.72 13.94 10.99 1.85.77 3.74 1.43 5.64 2.07-1.96.9-4.05 1.63-6.25 1.34-5.8-.61-12.86 1.8-14.72 7.86 1.85.73 3.73 1.78 5.79 1.56 6.26-.41 12.25-2.72 18.56-2.74.03 1.52.19 3.05.03 4.57-2.09 2.36-4.88 3.95-7.36 5.86 4.51 3.18 9.74 5.01 14.69 7.35-.63.39-1.89 1.19-2.52 1.59-1.57.83-3.18 1.56-4.79 2.29-1.34-.67-2.67-1.34-4-2.01-1.09.7-2.18 1.39-3.26 2.1-3.55-1.33-7.04-3.11-9.22-6.33-1.58-2.51-4.13-3.97-7.03-4.4-1.49-3.76-2.38-8.23-5.92-10.68-3.35-2.61-7.76-2.89-11.53-4.58-1.03-.73-.52-2.23-.69-3.29.28-6.16.95-12.3 1.59-18.42"/><path fill="#470914" d="M110.77 150.8c3.91-2.49 5.73-8.03 11.03-8.07-.37 1.76-.75 3.52-1.15 5.27 1.51.66 3.02 1.31 4.54 1.97-1.39.42-2.77.85-4.15 1.27-1.07 3.11-2.39 6.23-2.42 9.57-.04 3.48 1.01 6.84 1.82 10.18.58-3.58 1.38-7.13 2.48-10.6 1.55 2.68 3.06 5.39 4.56 8.1.88-2.52 1.82-5.05 2.12-7.72.24 8.08.5 16.16.37 24.25.14 19.31.93 38.65-.51 57.93-.23 63.56.14 127.12-.21 190.68-3.09 1.79-5.36 4.56-7.27 7.52-1.55-.6-3.09-1.19-4.64-1.79 2.88-2.45 4.96-5.65 6.26-9.19-1.37-.78-2.74-1.55-4.11-2.32 1.55-2.42 3.27-4.87 3.74-7.78.69-3.63.09-7.35.52-11.01.63-1.93 2.31-3.33 2.95-5.25.6-4.35-.65-8.68-2.5-12.58-.88 3.04-1.68 6.1-2.5 9.16-1.04-1.45-2.79-2.87-2.25-4.87.13-3.15 3.37-4.38 5.54-5.98-.08-.73-.17-1.46-.26-2.17-2.14 1.16-4.49 1.78-6.93 1.76-3.19-.32-4.32 3.6-7.19 4.15-2.93.61-5.86 1.32-8.53 2.7 3.01 1.71 6.4 2.44 9.82 2.74.4 4.91-3.18 8.81-3.62 13.58 1.91.44 3.82.88 5.73 1.33-.54 2.7-.71 5.66-2.49 7.91-1.78 2.4-4.05 4.38-6.21 6.42.83 1.44 1.67 2.88 2.51 4.33-3.09 2.82-7.07 4.11-10.97 5.34 1.03.9 2.06 1.82 3.1 2.74l-.21 2.58c2.65 1 5.29 2.03 7.9 3.14-3.37 3.19-7.91 2.29-11.9 1.12-.39-2.23-.66-4.5-1.42-6.64-4.08-3.12-9.39-3.94-14.03-5.99-.54 1.54-2.98 3.65-.98 5.03 2.86 1.44 6.16 1.56 9.26 2.1.12 1.24.25 2.49.37 3.74-2.9.46-6.05.38-8.67 1.86-3.44 2.31-3.54 6.81-4.19 10.49 2.81-1.3 5.78-2.15 8.81-2.74-.15 4.55-4.32 6.93-6.61 10.36-.17 3.86 2.19 7.29 3.56 10.78 3.07.8 6.31 1.28 9.14 2.81 2.61 3.08 4.31 6.99 7.85 9.25-1.76 2.24-3.59 4.43-5.46 6.58.11-2.09.62-4.25.07-6.3-1.22-3.04-3.25-5.66-4.92-8.46-2.06-.05-4.14-.26-6.18.03-2.09.45-2.13 2.98-2.96 4.55-1.28-1.93-1.93-4.94-4.45-5.52-3.44.39-3.35 4.46-4.25 6.99-1.95-5.55-6.43-9.47-9.61-14.19-.96-5.34 1.3-10.73.7-16.15-2.28-.5-4.66-.78-6.8-1.74-2.13-2.65-3.55-5.76-5.27-8.66 3.31-3.12 7.4-5.93 9.03-10.35.44-3.11.01-6.33 1.1-9.35-2.01.81-4.06 1.55-6.11 2.26 1.31-2.24 2.75-4.4 4.38-6.42-1.29.41-2.59.8-3.89 1.2-.3-3.34-.58-6.68-.88-10.02 1.4.43 2.77.99 4.23 1.17 2.6-.42 4.9-1.84 7.26-2.92-2.19-3.1-4.06-6.57-7.12-8.92-3.44.19-6.59 1.77-9.73 3.06-2.5-1.45-4.94-3.2-5.17-6.35 2.32.84 4.56 1.88 6.67 3.16-.76-5.73 1.37-11.44.06-17.16-1.28 1.03-2.55 2.08-3.82 3.13-1.35-2.5-2.72-4.98-4.12-7.44-1.38 1.38-3.26 2.64-3.45 4.76-.62 4.94 1.06 9.8 1.45 14.71a92 92 0 0 0-4.97-3.89c-.96.97-1.92 1.94-2.87 2.93.98-4.15 3.48-8.3 2.07-12.67-2.92-10.91-.58-22.24-.09-33.29-.1-5.93.41-11.94-.9-17.78-1.2-4.7 1.25-9.37.29-14.1-1.37-8.8.03-17.69-.69-26.52-.63-6.45 1.02-12.88.27-19.33-.55-5.08-1.1-10.19-.93-15.31 3.19-1.18 6.56-1.7 9.94-1.81-.8-1.16-1.59-2.32-2.39-3.47 1.72-1.09 3.39-2.77 5.6-2.47 5.96.37 11.91.97 17.88.83-1.26 1.99-2.52 4-3.77 6 1.73.71 3.46 1.43 5.19 2.15l-1.36 1.24c-2.28-.28-4.57-.56-6.85-.85-1.69 2.74-1.33 5.76.36 8.4-1.63 1.89-3.52 3.65-4.56 5.96-.41 2.46.51 4.94.2 7.42-.9 2.28-2.66 4.16-3.37 6.53.7 4.11 5.12 5.94 8.08 8.28.35 1.48.69 2.96 1.03 4.44 3.85 1.4 7.93 1.88 12 1.59l-.33-4.16c1.29-.49 2.53-1.1 3.89-1.36 1.75.4 3.27 1.42 4.86 2.22.6-.26 1.8-.77 2.41-1.03-5.56-4.39-13.05-3.27-19.64-4.13-1.16-6-1.34-12.43 1.57-17.99-1.51-2.4-3.1-4.75-4.72-7.08 1.65-1.33 3.25-2.71 4.83-4.12 2.67 2.62 4.91 8.93 9.56 6.75 4.29-2.28 8.4-5.33 13.51-5.23-.76-4.31-.94-9.23-4.41-12.39-2.53-2.41-4.14-5.53-5.27-8.8 1.11-.65 2.2-1.34 3.37-1.87 1.28.18 2.47.71 3.66 1.17.19-2.1-.21-4.87 2-6.06 3.57-1.74 7.64-1.98 11.49-2.75l.66-4.37c-6.8.41-10.97-5.54-14.95-10.07.1-1.92.34-3.84.09-5.75-.89-2.37-2.87-4.16-3.81-6.51-.72-2.76-.64-5.64-.82-8.46-2.09.4-4.18.8-6.28 1.21-1.21-.94-2.42-1.88-3.63-2.81 2.77-1.8 5.73-3.34 8.27-5.45 1.2-3.02 1.34-6.37 2.73-9.31 2.05-1.27 4.43-1.8 6.7-2.53-2.22-3.25-1.49-7.15-.58-10.71 1.52 2.24 3.45 4.35 4.23 6.99.09 2.78-.51 5.53-1.05 8.25 2.42.27 4.76-.27 6.7-1.75-2.22-6.23 2.64-12.25.67-18.46-.85-3.8-5.22-5.16-6.74-8.59 1.99-1.72 4.79-1.47 7.24-1.86.72-1.74 1.35-3.53 2.3-5.16 3.99-1.51 8.56.56 12.51-1.22"/><path fill="#33060d" d="M29.49 146.4c.15-1.44 2.06-2.1 2.69-.54 2.22 3.6 1.04 8.08.44 11.98-1.83 8.39-.28 16.97-.2 25.45.06 7.24-.79 14.48-.31 21.72.23 4.23 1.01 8.42.94 12.67-.07 3.75-1.24 7.36-1.57 11.08-.12 10.38.67 20.79.29 31.19-.17 5.12.38 10.23.93 15.31.75 6.45-.9 12.88-.27 19.33.72 8.83-.68 17.72.69 26.52.96 4.73-1.49 9.4-.29 14.1 1.31 5.84.8 11.85.9 17.78-.49 11.05-2.83 22.38.09 33.29 1.41 4.37-1.09 8.52-2.07 12.67.32 4.58 1.08 9.12 1.06 13.72.11 5.95-.93 12.04.85 17.85 1.69 5.02 1.52 10.38 1.64 15.61-.55 3.71-3.14 6.95-2.83 10.85.16 6.25-.01 12.51-.31 18.76-.44 10.79 2.68 21.52.92 32.28-.83 5.11-1.04 10.37.24 15.43 1.65 6.64 2.66 13.52 5.55 19.78-3.53.01-7.06.21-10.58.46.24-31.89.1-63.8-.07-95.69-1.06-7.66.08-15.33-.02-23-.81-6.99.36-14-.42-20.99-.03-9.34-.35-18.69.16-28.01 1.14-9.33-.99-18.66-.14-28 .82-7.98.6-16 .5-24 .06-13.33-.16-26.67.04-40-.22-24.66.53-49.36-.55-73.99 1.05-9.56-.68-19.12.08-28.69 2.82-11.45-.22-23.37 1.62-34.92"/><path fill="#e8e5de" d="M164.74 156.29c2.2-1.34 4.41-2.68 6.62-4 4.04 4.16 8.75 7.6 13.64 10.68-1.26.75-2.53 1.5-3.79 2.25.64.82 1.27 1.65 1.9 2.48.8-1.07 1.6-2.14 2.41-3.21 2.72 2 5.13 4.45 6.15 7.76.72 2.65 4.04 2.19 6.07 3.09 3.09.59 4.09 4.04 5.86 6.22 2 3.42 6.27 4.12 9.04 6.7 4.42 3.94 8.57 8.2 13.32 11.76 7.02 5.27 11.42 13.36 19.1 17.84 3.93 2.09 6.3 5.89 8 9.86 2.71.62 6.14.83 7.25 3.88 2.15 4.63 6.38 7.62 10.27 10.67 2.84 2.22 6.84 2.16 9.53 4.63 3.35 3.01 6.54 6.23 9.33 9.77 1.54 1.67.49 3.98.32 5.93 3.65 1.16 7.64 1.59 10.93 3.66 10.79 8.09 19.89 18.22 30.97 25.94 3.02 2.05 5.1 5.07 7.25 7.96 1.55 2.29 4.28 3.17 6.63 4.38 4.19 1.86 6.81 5.81 10.12 8.8 4.06 4.08 9.6 6.25 13.63 10.37 4.45 4.43 8.76 9.1 14.22 12.33l-.3-4.64c3.5 2.88 6.97 5.82 10.09 9.13.81.06 1.64.13 2.46.2l.77.06c-.01-5.07.22-10.13.46-15.19.67 2.96 1.48 5.9 2.28 8.84.58-4.12.74-8.28.71-12.44-.06-6.36 1.27-12.66.96-19.02-.3-6.55-.82-13.16.35-19.65 1.24-6.13-.32-12.35.5-18.5.68-5.56.63-11.17.82-16.76 1.69.52 3.39 1.04 5.09 1.55.88-.48 1.76-.96 2.65-1.44-2.17-.71-4.4-1.29-6.43-2.33-2.11-3.26 2.19-6.11 3.78-8.68 1.79 2.2 3.93 4.07 6.25 5.69.36 1.89.7 3.78 1.1 5.66 1.2-1.72 2.23-3.55 3.09-5.46-.57-.87-1.19-1.69-1.61-2.63.96-2.61 3.05-4.58 4.84-6.64-.04 2.94-.24 5.9.07 8.83.68 2.08 2.56 3.49 3.96 5.1.51-2.27.71-4.58.99-6.88 1.98-3.29 6.27-2.89 9.55-2.33-1.23 1.45-2.47 2.89-3.7 4.33 3.29.88 6.63 1.58 9.99 2.16-2.86 1.43-6.04 1.88-9.21 1.62 1.24 1.18 2.48 2.38 3.71 3.59-2.43 1.94-5.24 3.44-8.43 3.4 1.21.89 2.4 1.81 3.6 2.74-1.69.04-3.39.18-5.06-.1-3.29-2.54-5.76-5.98-8.93-8.68-1.33 2.02-3.56 3.99-2.89 6.66.6 3.84.58 7.75-.78 11.44 2.7.23 5.4.49 8.1.8a18.8 18.8 0 0 1-5 5.54c-2.13-1.38-4.28-2.71-6.45-4.01-.27 1.1-.54 2.2-.79 3.31 1.56 1.02 3.21 1.94 4.62 3.18.98 3.07.78 6.34.93 9.52 1.62.77 4.65.3 5.05 2.53.77 2.94 1.58 5.88 2.78 8.69-2.19-1.05-4.4-2.04-6.6-3.03-.18 2.03-.38 4.06-.59 6.09 2.15.13 4.24.68 6.2 1.59-2.08.26-4.17.46-6.25.61 1.28 1.1 2.58 2.18 3.89 3.27-.52 1.73-.69 3.52-.81 5.32a163 163 0 0 1-4.75 3.55c-.03.46-.11 1.37-.14 1.83 3.4 2 6.69 4.18 9.88 6.52-1.16 1-2.31 2.02-3.54 2.92-2.54 2.15-6.54-.5-8.87 2.01-2.33 2.03-.14 5.01.34 7.37.98 1.98.23 4.06-.57 5.94.96.91 1.92 1.81 2.89 2.72-.53 1.44-1.05 2.87-1.57 4.32-2.84-1.83-6.34-1.45-9.55-1.67-4.17 2.6-8.21 5.49-12.74 7.45-4.97 2.11-10.49 1.5-15.74 1.42-.91 5.71 1.92 11.38-.13 17.01q-3.045.54-6.06 1.14c.4 1.09.77 2.2 1.29 3.26 1.84 1.1 4.04 1.32 6.09 1.89-.65 2.24-.6 5.38-3.26 6.28-3.26-.67-4.5-4.46-7.21-6.1-1.79-.63-3.72-.68-5.58-.91-3.36-3.01-6.53-6.25-10.2-8.91-3.75-2.72-6.76-6.32-10.52-9.03-4.75-3.31-8.08-8.25-13-11.36-4.84-3.1-8.66-7.41-12.48-11.64-4.45-5.02-10.72-7.84-15.41-12.59-4.92-5.1-10.86-9.09-15.55-14.43-3.17-3.64-8.05-5.81-9.97-10.46-1.59-4.8-7.85-3.35-11-6.56-6.76-6.24-13.58-12.43-20.25-18.76-2.65-2.41-3.04-6.95-6.9-7.94-8.57-3.05-13.74-11.08-21.06-16.02-3.55-2.43-6.54-5.57-9.53-8.63-1.16-1.13-1.26-2.82-1.66-4.29-1.43-.87-2.88-1.72-4.32-2.58-.6-2.8-1.35-5.57-2.19-8.3-1.02 2.22-1.98 4.46-2.92 6.71-3.29-2.04-6.06-7.08-10.43-6-1.52-.2-3.01-.54-4.5-.85-.15 8.2.67 16.38.53 24.59-.14 11.43-.02 22.87-.06 34.3-.6-4.82-1.26-9.65-2.13-14.44-2.55 6.28-2.14 13.16-2.05 19.8-2.74-1.37-5.77-1.84-8.72-2.56-2.19-1.05-2.97-3.56-3.46-5.76-.79-4.22-3.26-8.14-2.55-12.57-2.66.88-5.51 1.44-8.09 0 5.89-3.06 11.86-6.47 16.14-11.64 1.21-3.21.59-6.79.71-10.16-.74-.31-1.47-.61-2.21-.91l1.38-2.19c-2.17-.96-4.34-1.91-6.51-2.84 2.29-2.59 4.15-5.54 5.29-8.82 1.61-1.08 3.23-2.14 4.87-3.18.24-1.63.48-3.25.73-4.86 4-2.32 6.64-6.15 8.18-10.43-3.37-.83-6.86-1.32-10.09-2.61-3.2-2.45-4.56-6.89-2.61-10.55 1.95 3.06 3.64 6.27 5.25 9.53.69-4.75.23-9.53-.06-14.29 5.31-.73 7.02-6.85 6.4-11.45-2.71.38-6.04 2.2-8.4-.05-1.12-1-2.52-2.63-1.18-4.04 3.6-.52 7.24-.88 10.75-1.92-2.57-1.77-4.46-4.26-6.66-6.42-3.44-1.71-6.98.86-10.07 2.2-.36-1.08-.76-2.15-.99-3.26.92-2.9 3.82-5.31 3.01-8.58-.2-1.68-.54-3.34-.87-4.99"/><path fill="#470b16" d="M44.17 176.7c3.42.49 5.01 4.32 4.58 7.43.11 3.07-2.23 5.25-4.11 7.34 3.67 3.31 7.21 6.78 10.38 10.59-3.73 3.55-9.2 2.53-13.65 4.54 3.11 1.74 6.29 4.16 10.01 4.08 1.68-1.16 2.78-4.41 5.24-3.42 2.96.82 5.12 4.27 4.05 7.24-1.27 1.77-3.01 3.14-4.62 4.6a439 439 0 0 0-.11 3.68c-2.11.98-4.21 1.96-6.32 2.94-.79 3.59-1.44 7.21-1.91 10.86-2.55-.79-5.08-1.76-7.75-1.98-2.28.03-4.32 1.24-6.4 2.03-.75-2.61-1.51-5.22-2.08-7.87.33-3.72 1.5-7.33 1.57-11.08.07-4.25-.71-8.44-.94-12.67-.48-7.24.37-14.48.31-21.72.8-1.44 1.66-2.85 2.69-4.13 1.97-2.87 5.97-2.7 9.06-2.46"/><path fill="#5d0728" d="M513.66 179.57c2.26-.48 4.9-1.99 7.02-.3 3.48 2.5 7.29 5.5 8.21 9.94 1.09 3.86.09 8.13 2 11.79 1.09 2.21 2.06 4.56 3.71 6.43 3.04 2.56 7.02 3.61 10.14 6.05.93 3.06-2.93 4.74-3.82 7.39-1.54 2.39-1.4 6.83-5.03 6.97-1.33.39-2.71.62-4.05.93.92 1.21 1.88 2.42 2.81 3.64-3.26 4.72-6.26 9.71-10.58 13.56 1.04 2.05 2.11 4.08 3.21 6.1-2.88 4.81-9.01 1.96-12.8-.13a14.6 14.6 0 0 1 6.51-1.7c-5.57-3.33-3.03-10.39-6.46-14.98 1.39-.33 2.78-.67 4.18-1-.89-2.92-1.67-5.98-3.64-8.4-2.74-2.84-8.29-1.98-9.79-6.14-.57-1.21-1.06-2.45-1.55-3.68 1.96-2.21 3.87-5.28 7.25-5.13 4.62-.04 9.16 1.12 13.8 1.12.49-4.78 1.09-9.73-.38-14.41-1.76-.69-3.13 1.05-4.6 1.73-1.06-.34-2.12-.69-3.16-1.04-.57 3.45-.08 6.94.13 10.41-2.65.13-5.74.41-7.78-1.66-.53-2.27-.23-4.62-.19-6.92-.6.01-1.79.04-2.38.05q-.465 2.46-.9 4.92c-1.38-.45-2.98-.55-4.11-1.52-.71-1.48-1.01-3.1-1.41-4.67-5.59-1.19-8.02-7.02-12.2-10.33 1.23-.74 2.41-1.58 3.77-2.1 3.44-1.15 6.91 2.22 10.25.4l2.16-.84c.7 1.39 1.42 2.79 2.16 4.17 4.43-1.85 5.95-6.53 7.52-10.65"/><path fill="#ebe7e2" d="M5.23 184.63c1.35-.29 2.69-.58 4.03-.87-.28 3.36-.41 6.73-.68 10.09 6.26.01 10.3-5.09 14.71-8.74.19 1.52.47 3.06.42 4.61-.95 2-2.44 3.67-3.63 5.53 1 1.84 2.99 2.78 4.34 4.32.87 2.71.61 5.63.71 8.44-.14 3.65.52 7.88-2.41 10.68-.01-2.8.31-5.59.99-8.31-.41-.44-1.22-1.33-1.63-1.78-1.04 3.38-2.27 6.71-3.13 10.15-1.14 4.84-.51 9.94 1.4 14.51.82-3.47 1.5-6.97 2.23-10.46 3.18 3.9 1.77 9.01 1.83 13.59-.08 3.71.91 7.31 1.68 10.9.26 10.23.15 20.47.13 30.71-.82 7.65-.01 15.32.02 22.98-.55 12.66-.55 25.35-.09 38.01-.07 10.43-.47 20.85-.15 31.28-.99-4.36-2.66-8.72-2.01-13.27.69-4.94.4-9.94-.8-14.77-1.01 1.16-2.01 2.34-3.01 3.51-1.66-.87-3.31-1.73-4.98-2.56.87-.8 1.75-1.6 2.62-2.39-.1-.7-.31-2.09-.41-2.78-3.04.53-5.18 2.73-7.05 5.01.51 2.87 1.89 6.38-.48 8.83-1.33 1.93-3.93.67-5.85.86.17-4.22 2.8-7.82 2.94-12.04-2.33-.13-4.65-.25-6.97-.37V190.28c2.2-.21 4.39-.43 6.59-.66-.4-1.68-.85-3.34-1.36-4.99"/><path fill="#782b42" d="M41.21 183.98c1.14.1 2.26.25 3.39.44 1.25.63 1.01 2.33 1.46 3.47-1.61-.34-3.22-.66-4.84-.98 0-.74-.01-2.2-.01-2.93"/><path fill="#640b2d" d="M483.25 208.23c2.55-4.19 10.87-2.4 10.83 2.75.47 3.25-1.26 6.26-1.37 9.46.15 2.51.76 4.97 1.22 7.43-4.85.13-9.81.1-14.46-1.42-2.04-.73-3.95-2.97-3.23-5.22 1.18-4.84 4.19-8.99 7.01-13"/><path fill="#a08486" d="M178.21 224.39c1.49.31 2.98.65 4.5.85l-.68.61c-.37.36-1.11 1.08-1.48 1.45.24 31.46-.06 62.94.3 94.4-.2 17.77-.11 35.54-.08 53.3.11 5.28-.63 10.62.12 15.87 1.79 3.74 5.42 6.1 8.23 9.01 6.36 6.34 13.32 12.1 18.92 19.16-5.51-3.76-9.83-8.88-14.69-13.38-5.09-4.77-9.94-9.79-15.25-14.33-.61-4.43.23-8.87.4-13.3.47-31.58-.06-63.17.18-94.75.04-11.43-.08-22.87.06-34.3.14-8.21-.68-16.39-.53-24.59"/><path fill="#f7eae9" d="M182.71 225.24c4.37-1.08 7.14 3.96 10.43 6 .94-2.25 1.9-4.49 2.92-6.71.84 2.73 1.59 5.5 2.19 8.3 1.44.86 2.89 1.71 4.32 2.58.4 1.47.5 3.16 1.66 4.29 2.99 3.06 5.98 6.2 9.53 8.63 7.32 4.94 12.49 12.97 21.06 16.02 3.86.99 4.25 5.53 6.9 7.94 6.67 6.33 13.49 12.52 20.25 18.76 3.15 3.21 9.41 1.76 11 6.56 1.92 4.65 6.8 6.82 9.97 10.46 4.69 5.34 10.63 9.33 15.55 14.43 4.69 4.75 10.96 7.57 15.41 12.59 3.82 4.23 7.64 8.54 12.48 11.64 4.92 3.11 8.25 8.05 13 11.36 3.76 2.71 6.77 6.31 10.52 9.03 3.67 2.66 6.84 5.9 10.2 8.91-.62 1.25-1.25 2.51-1.87 3.77-27.55-23.79-54.85-47.87-82.63-71.38-7.88-7.81-16.64-14.64-24.8-22.14-8.49-6.82-16.38-14.32-24.75-21.28-8.72-8.35-18.46-15.54-27.15-23.9-5.58-5.14-11.78-9.61-16.87-15.25z"/><path fill="#2e0106" d="M180.55 227.3c.37-.37 1.11-1.09 1.48-1.45 5.09 5.64 11.29 10.11 16.87 15.25 8.69 8.36 18.43 15.55 27.15 23.9-2.37-1.92-5.27-2.94-8.29-3.21-3.67-4.69-9.51-6.73-13.56-11-3.74-3.46-7.25-7.68-12.44-8.88.77 5 5.41 7.7 8.74 10.95-4.79.21-10.54-1.11-14.56 2.14-1.25 2.78-.21 6.04-.18 9 .7 6.45-.28 12.9-1.39 19.24-.75 3.75.37 7.46 1.02 11.13 1.32 7.41-2.16 14.68-1.2 22.11.63 5.28 1.67 11.04-1.48 15.78-.58-3.53-1.22-7.04-1.86-10.56-.36-31.46-.06-62.94-.3-94.4"/><path fill="#460413" d="M191.76 241.91c5.19 1.2 8.7 5.42 12.44 8.88 4.05 4.27 9.89 6.31 13.56 11 3.02.27 5.92 1.29 8.29 3.21 8.37 6.96 16.26 14.46 24.75 21.28 8.16 7.5 16.92 14.33 24.8 22.14 27.78 23.51 55.08 47.59 82.63 71.38 7.88 6.58 15.45 13.52 23.12 20.35-4.69 1.02-8.8-1.49-12.71-3.64-3.19-1.9-6.7.31-9.93.89-5.55 1.62-11.32.43-16.86-.59 1.86 2.46 3.71 5.74 7.15 5.99 1.75-.48 3.18-1.69 4.7-2.62-.3 3.08-.79 6.23-.19 9.31 1.03 2.05 2.91 3.5 4.49 5.14 1.49-.89 2.98-1.76 4.48-2.62.75 2.82 1.27 5.69 1.62 8.58-1.52 1.74-3.29 3.38-4.13 5.59-.09 1.86.64 3.65 1.02 5.46 2.71.27 5.53.26 8.11 1.24 2.22 3.44 3.4 7.41 5.06 11.13 3.11-1.26 6.48-1.31 9.78-.89-.04 1.53-.08 3.06-.11 4.59-2.19.46-4.38.93-6.57 1.4-1.53 4.54-3.91 8.69-6.27 12.84-2.66 4.3.86 9.07.38 13.61-2.09 5.38-6.84 9.21-11.71 12.01-2.38 1.48-5.55 3.13-5.43 6.4 1.55 4.08 6.25 5.35 9.77 7.23.32 1.24.64 2.48.96 3.74l-8.68.03c-1.74-2.39-3.51-4.76-5.31-7.09-4.65 2.25-9.09 4.95-13.04 8.31-2.54-1.12-5.09-2.61-7.94-2.6-3.37.27-6.47 1.82-9.82 2.19-3.24-.94-5.25-4.53-5.02-7.8.17-4.2.48-8.42 0-12.62 3.39-3.73 4.01-9.19 2.3-13.82-1.56-1.73-3.78-2.63-5.76-3.74-.05 4.08.31 8.16 1.13 12.16-3.89-2.16-8.17-4.06-12.72-2.95a45 45 0 0 0-.97 10.18c1.54.39 3.09.79 4.64 1.18.73 2.48 2.85 5.17 1.55 7.79-2.08 1.11-4.39 1.65-6.5 2.69-.8 1.58.27 3.52.36 5.23-.28.37-.84 1.09-1.12 1.46-13.23-12.65-26.16-25.58-39.42-38.18-9.37-9.52-19.36-18.4-28.65-27.99.95-.37 1.9-.72 2.85-1.08-.57-.83-1.13-1.66-1.69-2.48 2.27-.73 4.57-1.4 6.87-2.06-1.11-1.45-2.18-2.91-3.32-4.31 3.43-2.34 7.59-4.11 9.79-7.82 1.07-1.68 1.95-3.48 3.23-5 3.57-1.6 7.45-.23 11 .7a150 150 0 0 0-3.77 9.19c-1.33-.76-2.67-1.52-4-2.26-.08.32-.23.96-.31 1.27 2.86 4.51.71 10.96 5.35 14.51 5.7 3.59 11.33 7.49 17.94 9.19 2.05 3.12 1.44 7.11 1.48 10.66 2.64 1.37 5.44 2.41 8.37 2.96.02-1.48.11-2.96-.02-4.43-1.62-1.58-3.64-2.64-5.54-3.83.43-2.41 1.04-4.82 1.04-7.27-2.24-1.64-5.55-1.44-7.79-3.29 3.74-3.42 9.2-2.26 13.82-2.4 4.6.34 8.93-1.42 13.07-3.21.4-2.86.53-5.81 1.46-8.57 2.46-1.68 5.78-2.32 7.46-4.98.92-1.3 1.75-2.66 2.6-4.01-4.32-1.86-9.1-5.22-13.91-2.9-3.18 1.43-7.23 2.84-8.59 6.35.29 2.82 1.35 5.48 2.17 8.18-5.84-4.11-8.69-10.88-12.72-16.54.01-3.16 1.29-6.37 3.2-8.87 1.97-1.57 4.51-2.15 6.81-3.09 1.63-4.14 5.42-6.44 9.28-8.17l-.4-2.23q-3.51-1.665-7.02-3.3c2.75-2.47 6.15-4.85 6.54-8.86-1.75-.53-3.5-1.05-5.25-1.58-3.4 3.27-5.6 7.48-6.79 12.01-6.28-1.28-12.65-2.64-18.23-5.93.06-2.98.09-5.95.11-8.91 1.19.06 2.38.12 3.57.2 3.92 3.8 9.46 4.48 14.59 5.38-.43-2.09.04-4.63-1.57-6.27-2.46-2.5-5.23-4.69-7.75-7.14 2.24-4.12 2.62-8.81 1.22-13.27 2.69.68 5.99.71 7.81 3.14 1.66 2.74 2.39 5.91 3.3 8.95 1.28-3.85 3.04-7.53 4.12-11.44.43-1.08-.44-2.05-1.1-2.78-2.64-2.75-6.18-4.44-8.74-7.26-.16-3.46.88-6.83 1.53-10.19-2.48.56-4.95 1.13-7.42 1.71 0-2.85.39-5.84-.73-8.54-5.36-.47-10.44 2.28-15.83 2.3 1.16 5.86 1.66 12.06 4.75 17.32 1.04 1.72 1.16 3.76 1.36 5.71-2.2.58-4.38 1.26-6.53 2.01-1.3-1.52-2.39-3.29-4.09-4.38-4.66-.72-9.38.22-14.06.37.87 1.22 1.75 2.45 2.62 3.68-1.65 2.03-3.09 4.21-4.39 6.48 4.6-.17 10.01-3.26 14.03.24 2.15 1.42 2.64 4.04 3.25 6.36-6.3.91-12.63.09-18.91-.49-.1 3.17-1.8 8.23 1.93 9.88 2.26-.5 2.93-3.27 4.52-4.71 4.5-.59 8.98.7 13.4 1.38-.34 1.24.12 3.24-1.69 3.34-3.52.91-6.6 2.81-9.64 4.75-3.74.57-7.52-1.09-11.26-.4-2.31 1.07-4.14 3.23-6.76 3.56-3.41.49-6.88.33-10.29.79.45-2.4.89-4.8 1.32-7.19-2.33.01-4.67 0-7.01-.01-2.27 4.43-7.26 5.09-11.33 6.99-3.51 3.77-.33 9.25-.45 13.73-2.48-.85-5.46-1.64-6.45-4.39.49-1.76 1.33-3.38 2.08-5.03q-2.955-2.31-5.91-4.59c1.12-.74 2.24-1.49 3.36-2.23.16-2.1.33-4.2.53-6.29 2.15-.57 4.38-.99 6.41-1.95 1.06-1.08.75-2.83.99-4.21-.59-.07-1.78-.23-2.37-.3-1.53 1.74-3.42 3.09-5.5 4.08 1.34-3.03 2.98-5.94 4.01-9.09-1.4-1.42-3.03-2.6-4.58-3.83-.35-5.42-1.52-10.8-1.2-16.24.16-1.72-.29-3.38-1.01-4.91q-1.77 1.545-3.54 3.12c-.75-1.7-1.94-3.31-2.07-5.2.27-3.49 2.21-6.56 3.96-9.48 1.1 2.84.48 5.87.54 8.81.65-.04 1.3-.09 1.96-.16.4-4.44 1.76-8.74 2.01-13.19-1.05-2.51-2.78-4.68-4.46-6.8 2.24.4 4.48.77 6.72 1.18-.12-4.83-4.82-6.68-8.48-8.55 2.53-1.75 6-3.08 6.84-6.36.99-3.29-.86-6.44-1.73-9.53-1.54-3.69 1.3-7.23 1.53-10.89-.98-3.6-3.56-6.57-4.28-10.27-.97-6.22-.71-13.5 4.34-18 1.06.83 2.11 1.66 3.17 2.5 1.68-2.12 3.29-4.3 4.78-6.55-3.33-3.25-7.97-5.95-8.74-10.95"/><path fill="#40010d" d="M185.94 255c4.02-3.25 9.77-1.93 14.56-2.14-1.49 2.25-3.1 4.43-4.78 6.55-1.06-.84-2.11-1.67-3.17-2.5-5.05 4.5-5.31 11.78-4.34 18 .72 3.7 3.3 6.67 4.28 10.27-.23 3.66-3.07 7.2-1.53 10.89.87 3.09 2.72 6.24 1.73 9.53-.84 3.28-4.31 4.61-6.84 6.36 3.66 1.87 8.36 3.72 8.48 8.55-2.24-.41-4.48-.78-6.72-1.18 1.68 2.12 3.41 4.29 4.46 6.8-.25 4.45-1.61 8.75-2.01 13.19-.66.07-1.31.12-1.96.16-.06-2.94.56-5.97-.54-8.81-1.75 2.92-3.69 5.99-3.96 9.48.13 1.89 1.32 3.5 2.07 5.2q1.77-1.575 3.54-3.12c.72 1.53 1.17 3.19 1.01 4.91-.32 5.44.85 10.82 1.2 16.24 1.55 1.23 3.18 2.41 4.58 3.83-1.03 3.15-2.67 6.06-4.01 9.09 2.08-.99 3.97-2.34 5.5-4.08.59.07 1.78.23 2.37.3-.24 1.38.07 3.13-.99 4.21-2.03.96-4.26 1.38-6.41 1.95-.2 2.09-.37 4.19-.53 6.29-1.12.74-2.24 1.49-3.36 2.23q2.955 2.28 5.91 4.59c-.75 1.65-1.59 3.27-2.08 5.03.99 2.75 3.97 3.54 6.45 4.39.12-4.48-3.06-9.96.45-13.73 4.07-1.9 9.06-2.56 11.33-6.99 2.34.01 4.68.02 7.01.01-.43 2.39-.87 4.79-1.32 7.19 3.41-.46 6.88-.3 10.29-.79 2.62-.33 4.45-2.49 6.76-3.56 3.74-.69 7.52.97 11.26.4 3.04-1.94 6.12-3.84 9.64-4.75 1.81-.1 1.35-2.1 1.69-3.34-4.42-.68-8.9-1.97-13.4-1.38-1.59 1.44-2.26 4.21-4.52 4.71-3.73-1.65-2.03-6.71-1.93-9.88 6.28.58 12.61 1.4 18.91.49-.61-2.32-1.1-4.94-3.25-6.36-4.02-3.5-9.43-.41-14.03-.24 1.3-2.27 2.74-4.45 4.39-6.48-.87-1.23-1.75-2.46-2.62-3.68 4.68-.15 9.4-1.09 14.06-.37 1.7 1.09 2.79 2.86 4.09 4.38 2.15-.75 4.33-1.43 6.53-2.01-.2-1.95-.32-3.99-1.36-5.71-3.09-5.26-3.59-11.46-4.75-17.32 5.39-.02 10.47-2.77 15.83-2.3 1.12 2.7.73 5.69.73 8.54 2.47-.58 4.94-1.15 7.42-1.71-.65 3.36-1.69 6.73-1.53 10.19 2.56 2.82 6.1 4.51 8.74 7.26.66.73 1.53 1.7 1.1 2.78-1.08 3.91-2.84 7.59-4.12 11.44-.91-3.04-1.64-6.21-3.3-8.95-1.82-2.43-5.12-2.46-7.81-3.14 1.4 4.46 1.02 9.15-1.22 13.27 2.52 2.45 5.29 4.64 7.75 7.14 1.61 1.64 1.14 4.18 1.57 6.27-5.13-.9-10.67-1.58-14.59-5.38-1.19-.08-2.38-.14-3.57-.2-.02 2.96-.05 5.93-.11 8.91 5.58 3.29 11.95 4.65 18.23 5.93 1.19-4.53 3.39-8.74 6.79-12.01 1.75.53 3.5 1.05 5.25 1.58-.39 4.01-3.79 6.39-6.54 8.86q3.51 1.635 7.02 3.3l.4 2.23c-3.86 1.73-7.65 4.03-9.28 8.17-2.3.94-4.84 1.52-6.81 3.09-1.91 2.5-3.19 5.71-3.2 8.87 4.03 5.66 6.88 12.43 12.72 16.54-.82-2.7-1.88-5.36-2.17-8.18 1.36-3.51 5.41-4.92 8.59-6.35 4.81-2.32 9.59 1.04 13.91 2.9-.85 1.35-1.68 2.71-2.6 4.01-1.68 2.66-5 3.3-7.46 4.98-.93 2.76-1.06 5.71-1.46 8.57-4.14 1.79-8.47 3.55-13.07 3.21-4.62.14-10.08-1.02-13.82 2.4 2.24 1.85 5.55 1.65 7.79 3.29 0 2.45-.61 4.86-1.04 7.27 1.9 1.19 3.92 2.25 5.54 3.83.13 1.47.04 2.95.02 4.43-2.93-.55-5.73-1.59-8.37-2.96-.04-3.55.57-7.54-1.48-10.66-6.61-1.7-12.24-5.6-17.94-9.19-4.64-3.55-2.49-10-5.35-14.51.08-.31.23-.95.31-1.27 1.33.74 2.67 1.5 4 2.26 1.16-3.11 2.41-6.17 3.77-9.19-3.55-.93-7.43-2.3-11-.7-1.28 1.52-2.16 3.32-3.23 5-2.2 3.71-6.36 5.48-9.79 7.82 1.14 1.4 2.21 2.86 3.32 4.31-2.3.66-4.6 1.33-6.87 2.06.56.82 1.12 1.65 1.69 2.48-.95.36-1.9.71-2.85 1.08-6.24-5.91-12.04-12.34-18.96-17.49-1-.95-1.99-1.9-2.99-2.84-5.6-7.06-12.56-12.82-18.92-19.16-2.81-2.91-6.44-5.27-8.23-9.01-.75-5.25-.01-10.59-.12-15.87-.03-17.76-.12-35.53.08-53.3.64 3.52 1.28 7.03 1.86 10.56 3.15-4.74 2.11-10.5 1.48-15.78-.96-7.43 2.52-14.7 1.2-22.11-.65-3.67-1.77-7.38-1.02-11.13 1.11-6.34 2.09-12.79 1.39-19.24-.03-2.96-1.07-6.22.18-9"/><path fill="#641630" d="M536.69 257.82c2.52-2.46 6.22-2.87 9.51-3.56.58 1.88 1.28 3.72 1.96 5.57-.96 1.11-1.91 2.23-2.86 3.35-2.59-.96-5.23-1.78-7.66-3.07-.87-.38-1.61-1.42-.95-2.29"/><path fill="#5d0926" d="M526.72 270.51c.95-3.28 3.77-5.38 6.18-7.58 2 1.08 4.1 2.07 5.86 3.55.77 3.07-1.3 5.91-2.38 8.66 1.13 1.19 2.26 2.38 3.4 3.56-1.49.86-3 1.69-4.37 2.74-2.3 1.6-2.81 4.54-3.81 6.97 2.64.72 5.39 1.02 8.11.66 1.57 5.13 3.45 10.15 5.1 15.25-.06 1.32-.23 2.65-.54 3.94-1.11 5.53-7.74 6.58-10.8 10.77 3.64 1.65 7.31.08 10.6-1.59.36.72.73 1.46 1.09 2.2-7.22 2.01-16.45 2.9-20.02 10.61-2.42 3.31-.37 9.23-4.95 10.82-2.45 1.21-5.04 2.1-7.6 3.05 1.33 1.61 2.67 3.22 4.02 4.82-.92 1.76-1.83 3.51-2.75 5.27 3.93.03 7.85.42 11.75.98-.01 1.07 0 2.14 0 3.22-5.84 5.52-11.43 11.3-17.15 16.96-1.23-1.49-2.4-3.05-3.85-4.32-3.24-.75-6.34 2.11-7.05 5.12.3 2.57 1.67 4.84 2.72 7.17-1.07 1.3-2.03 2.69-3.03 4.05-1.76.91-3.55 1.78-5.16 2.93-1.1-1.69-2.96-3.25-2.92-5.41.59-1.8 2.17-3.06 3.31-4.53-1.1-.83-2.19-1.65-3.27-2.47-1.13 2.18-2.02 4.47-3.12 6.67-2.01-1.35-4.08-2.92-3.15-5.59-2.3-2.08-3.36-4.81-2.72-7.9 3.56.94 7.2 2.73 10.96 1.74.61-2.99.97-6.24 2.94-8.71 2.57-3.43 6.45-5.54 9.15-8.84 1.92-3.01 1.83-6.76 2.32-10.17-1.73.28-3.48.44-5.23.41.44 1.77.88 3.55 1.32 5.33-1.77 1.11-3.5 2.27-5.21 3.46-1.9-1.15-3.79-2.43-5.99-2.92-1.14 2.35-1.35 5.08-2.71 7.32-2.43 2.43-5.93.8-8.76.22 1.6-4.47 1.46-9.26-.46-13.61 1.25-1.38 2.5-2.76 3.76-4.13-1.33-2.61-3.39-5.31-2.81-8.41.57-2.54 2.16-4.67 3.47-6.87-1.91-1.39-3.94-2.67-5.57-4.39-.08-1.81.27-3.6.51-5.38 2.8 1.92 5.6 6.04 9.34 3.69-1.59-1.47-3.29-2.85-4.6-4.59-1.27-2.11.97-3.9 2.19-5.37 1.38-.6 2.83-1.09 4.09-1.93 1.65-2.51 2.19-5.61 3.98-8.04 2.34-2.15 5.43-3.28 7.82-5.38.97-3.65-2.55-6.36-4.41-9.08 3.2-2.13 7.19-4.35 7.68-8.6 1.02-3.28-2.18-5.35-4.07-7.43.91-1.23 1.82-2.47 2.74-3.7 3.16 4.9 6.81 10.17 12.57 12.16 2.68.22 5.34-.73 7.85-1.59 2.53-.7 2.6-3.8 3.63-5.77"/><path fill="#a9848c" d="M549.94 265.69c2.56 11.27-.56 22.92 1.64 34.24.78 11.44-.7 22.95.65 34.37-4.29 5.65-10.07 9.87-15.01 14.9-8.94 9.07-18.16 17.86-27.33 26.69-3.9 3.72-7.39 7.9-11.78 11.07l-.86.43c1-1.36 1.96-2.75 3.03-4.05 2.68-2.71 5.51-5.26 8.18-7.97 5.72-5.66 11.31-11.44 17.15-16.96 5.51-4.76 10.16-10.41 15.63-15.21 2.78-2.7 6.44-4.86 8.07-8.5.7-5.53.04-11.13.25-16.69.28-17.44-.37-34.89.38-52.32"/><path fill="#974663" d="M498.78 286.03c2.88-1.28 5.82-.55 8.35 1.15-1.01.88-1.99 1.81-3.12 2.53-2.15-.54-3.67-2.24-5.23-3.68"/><path fill="#55081e" d="M453.7 285.88c3.61.19 7.22.54 10.8 1.12.27.71.82 2.12 1.09 2.83 1.6-.52 3.2-1.05 4.8-1.57 1.11 2.91 1.83 6.08 3.75 8.59 2.93 1.64 6.03 3 8.98 4.66-2.92 3.89-3.64 8.72-3.28 13.47.67-1.36 1.32-2.72 1.99-4.07 1-.34 2-.69 3.01-1.04-1.22 1.47-3.46 3.26-2.19 5.37 1.31 1.74 3.01 3.12 4.6 4.59-3.74 2.35-6.54-1.77-9.34-3.69-.24 1.78-.59 3.57-.51 5.38 1.63 1.72 3.66 3 5.57 4.39-1.31 2.2-2.9 4.33-3.47 6.87-.58 3.1 1.48 5.8 2.81 8.41-1.26 1.37-2.51 2.75-3.76 4.13 1.92 4.35 2.06 9.14.46 13.61 2.83.58 6.33 2.21 8.76-.22 1.36-2.24 1.57-4.97 2.71-7.32 2.2.49 4.09 1.77 5.99 2.92 1.71-1.19 3.44-2.35 5.21-3.46-.44-1.78-.88-3.56-1.32-5.33 1.75.03 3.5-.13 5.23-.41-.49 3.41-.4 7.16-2.32 10.17-2.7 3.3-6.58 5.41-9.15 8.84-1.97 2.47-2.33 5.72-2.94 8.71-3.76.99-7.4-.8-10.96-1.74-.64 3.09.42 5.82 2.72 7.9-.93 2.67 1.14 4.24 3.15 5.59 1.1-2.2 1.99-4.49 3.12-6.67 1.08.82 2.17 1.64 3.27 2.47-1.14 1.47-2.72 2.73-3.31 4.53-.04 2.16 1.82 3.72 2.92 5.41-5.96 8.54-14.5 14.66-21.43 22.32-5.74 5.37-11.23 10.99-16.64 16.69-1.3-1.87-3.01-3.78-2.72-6.23.3-5.79-.79-11.59.09-17.35 1.06-8.41 1.01-16.94.22-25.37-.28-3.85-1.69-7.47-3.29-10.94-.17-6.82-.97-13.63-.4-20.45 1.36-15.66.22-31.39.67-47.08 2.6-.3 5.2-.6 7.8-.86-1.43-2.09-3.25-4.05-3.88-6.56-.36-2.92.62-5.78 1.19-8.61"/><path fill="#2c0205" d="M384.01 311.4c2.9-2.01 5.91-3.85 9.08-5.41 1.46 11-.28 22.13 1.34 33.12-.29.36-.85 1.07-1.13 1.42-3.12-3.31-6.59-6.25-10.09-9.13-4.85-3.83-9.09-8.34-13.91-12.18.49-1.72.89-3.45 1.11-5.22 1.68 1.8 3.12 3.98 5.28 5.25 2.34.45 4.74.18 7.11.12 1.47 2.8 2.91 5.62 4.35 8.44.62-.07 1.85-.22 2.47-.3.19-4.32 1-9-1-13.03-1.4-1.22-3.05-2.1-4.61-3.08"/><path fill="#f6f3ec" d="M554.13 316.41c2.85 3.83 2.04 8.8 1.48 13.21-.82 4.34-1.4 9.09-4.42 12.54-3.55 4.11-6.86 8.47-11.01 11.99-.24 1.33-.46 2.66-.67 4-1.46.1-2.92.21-4.37.32.06.5.2 1.52.26 2.02 1.23 1.54 2.57 3.02 3.51 4.76-.33 4.1-2.09 7.95-4.7 11.09-.04 1.67-.05 3.35-.04 5.03-3.76 3.52-6.97 7.56-10.65 11.15-4.23 4.38-8.97 8.29-12.76 13.09-3.47 4.54-7.92 8.18-11.83 12.32-10.76 10.1-20.6 21.13-31.23 31.37 5.95 6.48 12.68 12.31 20.22 16.87 4.41 2.78 7.85 6.75 11.53 10.38 2.79 2.77 6.02 5.03 8.87 7.75 2.98 3.34 6.45 6.24 10.49 8.22 2.01 1.14 3.91 2.47 5.62 4.04 5.85 5.49 11.84 10.83 17.48 16.55 2.49 2.89 5.17 5.75 8.83 7.17 1.5-7.06.59-14.27.72-21.41.09-7.41-.25-14.81-.11-22.21.08-5.3.33-10.63-.55-15.88-1.36-17.59.7-35.29-1.05-52.86-.88-10.1 1.18-20.11.75-30.2.61 8.67-.32 17.37.47 26.03 1.16-.65 1.8-1.61 1.93-2.87.5-4.42-.33-8.96.72-13.31.97-2.35 3.1-3.93 4.8-5.75-.5-3.41-.66-6.88-.2-10.3-1.57.27-3.14.54-4.71.8 2.24-5.3 6.55-9.28 10.93-12.83 2.94-2.42 7.08-3.86 8.52-7.69.95-1.65.8-3.56.51-5.35 1.4-2.41 2.68-4.9 3.5-7.57 1.56 2.63 3.69 4.89 4.98 7.69 1.2-2.34 2.41-4.7 3.05-7.27V561h-53.18c.67-2.43 1.33-4.85 2.01-7.28 1.11 1.36 2.23 2.72 3.35 4.09 2.82-2.63 6.62-3.26 10.17-4.32l1.08-2.32c-6.66-2.04-13.64-.92-20.46-1.25-4.71-.17-9.42-.65-14.13-.42.3-.7.92-2.1 1.22-2.81 6.65-.03 13.29.01 19.94.02 5.42-.04 10.91.45 16.26-.71-.64-.49-1.27-.98-1.89-1.45-5.77-4.13-11.02-8.9-16.37-13.54-5.79-5.01-11.79-9.77-17.58-14.78-2.63-2.44-5.26-4.87-8.03-7.13-22.8-20.38-46.38-39.86-69.37-60.02-1.05-.94-2.1-1.87-3.16-2.79 3.29-3.64 7.1-7.46 12.44-7.13.31-.33.92-.99 1.22-1.32 10.96-11.8 22.8-22.76 33.88-34.44 5.29-5.43 11.36-10.17 15.71-16.44 4.39-3.17 7.88-7.35 11.78-11.07 9.17-8.83 18.39-17.62 27.33-26.69 4.94-5.03 10.72-9.25 15.01-14.9 1.71-5.84.01-12.07 1.9-17.89"/><path fill="#66142e" d="M525.14 330.25c3.57-7.71 12.8-8.6 20.02-10.61 2.25 3.77.58 8.09-.15 12.04-1.34-1.63-2.65-3.31-4.24-4.68-2.86.18-5.3 1.83-7.75 3.14 1.2.29 2.41.6 3.62.9 1.47 3.55 3.43 6.88 5.9 9.83-.43.78-.87 1.55-1.3 2.33-5.47 4.8-10.12 10.45-15.63 15.21 0-1.08-.01-2.15 0-3.22-3.9-.56-7.82-.95-11.75-.98.92-1.76 1.83-3.51 2.75-5.27-1.35-1.6-2.69-3.21-4.02-4.82 2.56-.95 5.15-1.84 7.6-3.05 4.58-1.59 2.53-7.51 4.95-10.82"/><path fill="#6e6b64" d="M534.17 381.37c5.68-4.52 9.56-11.09 16.07-14.55.31 3.61.19 7.26.26 10.9.43 10.09-1.63 20.1-.75 30.2 1.75 17.57-.31 35.27 1.05 52.86-.66 1.13-1.55 2.24-1.58 3.61-.41 8.53-.65 17.08-.08 25.61-.32 8.33-.17 16.66.14 24.98-.57.25-1.73.75-2.31 1-1.71-.94-3.41-1.88-5.06-2.87-5.64-5.72-11.63-11.06-17.48-16.55-1.71-1.57-3.61-2.9-5.62-4.04.9-1.57 1.8-3.13 2.7-4.69-3.77-2.84-8.36-5.58-13.19-3.53-2.85-2.72-6.08-4.98-8.87-7.75-3.68-3.63-7.12-7.6-11.53-10.38-7.54-4.56-14.27-10.39-20.22-16.87 10.63-10.24 20.47-21.27 31.23-31.37 3.91-4.14 8.36-7.78 11.83-12.32 3.79-4.8 8.53-8.71 12.76-13.09 3.68-3.59 6.89-7.63 10.65-11.15"/><path fill="#3f0612" d="M448.32 369.44c1.6 3.47 3.01 7.09 3.29 10.94.79 8.43.84 16.96-.22 25.37-.88 5.76.21 11.56-.09 17.35-.29 2.45 1.42 4.36 2.72 6.23-1.96 2.28-4.15 4.34-6.66 6 1.14-21.95-.24-43.95.96-65.89"/><path fill="#6a1e36" d="M497.56 376.17c.71-3.01 3.81-5.87 7.05-5.12 1.45 1.27 2.62 2.83 3.85 4.32-2.67 2.71-5.5 5.26-8.18 7.97-1.05-2.33-2.42-4.6-2.72-7.17"/><path fill="#461018" d="M38.14 385.2c.19-2.12 2.07-3.38 3.45-4.76 1.4 2.46 2.77 4.94 4.12 7.44 1.27-1.05 2.54-2.1 3.82-3.13 1.31 5.72-.82 11.43-.06 17.16-2.11-1.28-4.35-2.32-6.67-3.16.23 3.15 2.67 4.9 5.17 6.35 3.14-1.29 6.29-2.87 9.73-3.06 3.06 2.35 4.93 5.82 7.12 8.92-2.36 1.08-4.66 2.5-7.26 2.92-1.46-.18-2.83-.74-4.23-1.17.3 3.34.58 6.68.88 10.02 1.3-.4 2.6-.79 3.89-1.2-1.63 2.02-3.07 4.18-4.38 6.42 2.05-.71 4.1-1.45 6.11-2.26-1.09 3.02-.66 6.24-1.1 9.35-1.63 4.42-5.72 7.23-9.03 10.35 1.72 2.9 3.14 6.01 5.27 8.66 2.14.96 4.52 1.24 6.8 1.74.6 5.42-1.66 10.81-.7 16.15 3.18 4.72 7.66 8.64 9.61 14.19.9-2.53.81-6.6 4.25-6.99 2.52.58 3.17 3.59 4.45 5.52.83-1.57.87-4.1 2.96-4.55 2.04-.29 4.12-.08 6.18-.03 1.67 2.8 3.7 5.42 4.92 8.46.55 2.05.04 4.21-.07 6.3l-4.71-.42c-.45 2.44-.3 5.25-1.85 7.31-3.03 1.78-6.55 2.44-9.88 3.47.3.21.89.64 1.19.85l4.46.03c-.43 3.73-.64 7.64 1.08 11.12 1.95 4.08 2.69 8.54 3.02 13.01 2.37 1.2 4.75 2.4 7.11 3.62q-1.065 2.1-2.13 4.23c3.29 1.16 6.73 1.81 10.2 2.08.3-5.38 2.05-10.56 5.28-14.89-1.79.49-3.58.97-5.37 1.46-1.89-2.25-1.61-5.09-.89-7.74 1.68 1.11 3.35 2.24 5.02 3.39 1.63-2.34 3.33-4.63 5.1-6.86 1.77 3.02 2.98 6.43 5.31 9.1 4.97.94 8.09-3.64 11.03-6.79.41 2.45.45 4.96 0 7.42-1.04 5.37 1.18 10.64 1.37 15.99.03.71.09 2.12.13 2.83-18.95.51-37.91-.05-56.86.08-11.02-.9-22.07-.78-33.11-.9-2.89-6.26-3.9-13.14-5.55-19.78-1.28-5.06-1.07-10.32-.24-15.43 1.76-10.76-1.36-21.49-.92-32.28.3-6.25.47-12.51.31-18.76-.31-3.9 2.28-7.14 2.83-10.85-.12-5.23.05-10.59-1.64-15.61-1.78-5.81-.74-11.9-.85-17.85.02-4.6-.74-9.14-1.06-13.72.95-.99 1.91-1.96 2.87-2.93 1.69 1.24 3.36 2.53 4.97 3.89-.39-4.91-2.07-9.77-1.45-14.71"/><path fill="#4f101c" d="M117.8 389.13c2.44.02 4.79-.6 6.93-1.76.09.71.18 1.44.26 2.17-2.17 1.6-5.41 2.83-5.54 5.98-.54 2 1.21 3.42 2.25 4.87.82-3.06 1.62-6.12 2.5-9.16 1.85 3.9 3.1 8.23 2.5 12.58-.64 1.92-2.32 3.32-2.95 5.25-.43 3.66.17 7.38-.52 11.01-.47 2.91-2.19 5.36-3.74 7.78 1.37.77 2.74 1.54 4.11 2.32-1.3 3.54-3.38 6.74-6.26 9.19 1.55.6 3.09 1.19 4.64 1.79 1.91-2.96 4.18-5.73 7.27-7.52.34 10.12-.18 20.25.07 30.38.21 14.33-.84 28.65-.48 42.98.14 11.41 0 22.82-.13 34.23-.19-5.35-2.41-10.62-1.37-15.99.45-2.46.41-4.97 0-7.42-2.94 3.15-6.06 7.73-11.03 6.79-2.33-2.67-3.54-6.08-5.31-9.1-1.77 2.23-3.47 4.52-5.1 6.86-1.67-1.15-3.34-2.28-5.02-3.39-.72 2.65-1 5.49.89 7.74 1.79-.49 3.58-.97 5.37-1.46-3.23 4.33-4.98 9.51-5.28 14.89-3.47-.27-6.91-.92-10.2-2.08q1.065-2.13 2.13-4.23c-2.36-1.22-4.74-2.42-7.11-3.62-.33-4.47-1.07-8.93-3.02-13.01-1.72-3.48-1.51-7.39-1.08-11.12l-4.46-.03c-.3-.21-.89-.64-1.19-.85 3.33-1.03 6.85-1.69 9.88-3.47 1.55-2.06 1.4-4.87 1.85-7.31l4.71.42c1.87-2.15 3.7-4.34 5.46-6.58-3.54-2.26-5.24-6.17-7.85-9.25-2.83-1.53-6.07-2.01-9.14-2.81-1.37-3.49-3.73-6.92-3.56-10.78 2.29-3.43 6.46-5.81 6.61-10.36-3.03.59-6 1.44-8.81 2.74.65-3.68.75-8.18 4.19-10.49 2.62-1.48 5.77-1.4 8.67-1.86-.12-1.25-.25-2.5-.37-3.74-3.1-.54-6.4-.66-9.26-2.1-2-1.38.44-3.49.98-5.03 4.64 2.05 9.95 2.87 14.03 5.99.76 2.14 1.03 4.41 1.42 6.64 3.99 1.17 8.53 2.07 11.9-1.12-2.61-1.11-5.25-2.14-7.9-3.14l.21-2.58c-1.04-.92-2.07-1.84-3.1-2.74 3.9-1.23 7.88-2.52 10.97-5.34-.84-1.45-1.68-2.89-2.51-4.33 2.16-2.04 4.43-4.02 6.21-6.42 1.78-2.25 1.95-5.21 2.49-7.91-1.91-.45-3.82-.89-5.73-1.33.44-4.77 4.02-8.67 3.62-13.58-3.42-.3-6.81-1.03-9.82-2.74 2.67-1.38 5.6-2.09 8.53-2.7 2.87-.55 4-4.47 7.19-4.15"/><path fill="#f7efed" d="M175.48 391.86c.65-.13 1.96-.4 2.62-.53 5.31 4.54 10.16 9.56 15.25 14.33 4.86 4.5 9.18 9.62 14.69 13.38 1 .94 1.99 1.89 2.99 2.84 2.92 3.75 6.18 7.22 9.7 10.42 14.87 14.45 29.78 28.86 44.58 43.39 11.29 10.36 21.85 21.49 33.07 31.93 12.12 11.54 24.04 23.31 35.85 35.17 1.61 1.47 3.35 3.22 5.71 3.17 15.34.71 30.7.53 46.05.6 43.03.51 86.05-.21 129.07.13-.3.71-.92 2.11-1.22 2.81-10.28.87-20.6.18-30.89.58-7.39-.17-14.78.27-22.16-.26-10.61.05-21.24.81-31.84.01-9-.87-17.95 1.65-26.93.22-17.1-.57-34.24.57-51.34-.42-5.84-.57-11.46 1.34-16.96 3.03-.3-1.02-.6-2.03-.89-3.03-1.1 1.66-2.45 3.21-3.05 5.14-.33 2.1.33 4.2.83 6.23h-32.28c2.14-2 4.21-4.07 6.36-6.05 1.99 1.73 3.99 3.46 6 5.18 1.59-2.4 3.48-4.68 4.53-7.38-.78-2.05-2.93-3.71-2.48-6.09.18-2.43.56-4.83.9-7.24-2.36 1.35-4.73 2.67-7.12 3.97-1.86-1.44-3.74-2.86-5.54-4.38-.26-.24-.78-.73-1.04-.97-32.76-32.71-65.35-65.59-98.19-98.22-.36-.37-1.09-1.1-1.45-1.47-.68-1.41-1.26-2.86-1.86-4.29q.9-1.065 1.83-2.13c4.12 3.61 7.98 8.06 13.57 9.29 3 5.66 6.77 11.04 12.12 14.71-.2-3.4-.04-7.03-1.74-10.1-1.68-3.01-3.58-5.89-5.61-8.67-2.09-2.84-5.42-4.35-7.76-6.94-5.09-6.56-11.76-11.61-17.06-18-5.89-6.98-13.64-12.41-18.31-20.36"/><path fill="#4d0619" d="M358.71 397.4c3.23-.58 6.74-2.79 9.93-.89 3.91 2.15 8.02 4.66 12.71 3.64 18.11 15.06 35.6 30.84 53.51 46.14 1.06.92 2.11 1.85 3.16 2.79-.64 1.24-1.85 2.32-1.93 3.78 1.44 2.04 3.37 3.65 5.2 5.32-.22 1.23-.44 2.46-.65 3.69 3.37 1.4 6.5 3.31 9.36 5.58-3.3.66-6.58 1.33-9.86 2.04.6 1.4 1.2 2.81 1.81 4.23-2.7 1.09-5.55.61-8.22-.3 1.67-1.67 3.38-3.32 5.1-4.95-1.91-2.71-3.73-5.9-7.02-7.09-2.39-.14-4.39 1.5-6.44 2.5-2.49-2.28-5.9-2.37-8.96-3.28-3.4-2.66-6.42-6.76-11.24-6.42-3.28.65-3.75 4.52-5.05 7.02-1 3.17-3.91 5.01-6.4 6.93 1.05.98 2.15 1.92 3.22 2.9 2.83-.9 5.75-2.37 8.81-1.71 3.44.64 6.77 1.74 10.18 2.52-1.05 1.9-2.24 3.78-2.75 5.92 1.39 1.73 3.83 2.23 5.61 3.53 3.19 1.89 2.42 7.52 6.48 8.25 1.95.53 3.95.86 5.94 1.24.89 1.71 1.48 3.73 3.03 4.98 2.28 1.46 4.94 2.16 7.48 3.06 1.46-.98 2.93-1.95 4.4-2.92 2.08 2.19 3.75 4.73 5.03 7.47-3.27 1.11-7.6.96-9.6 4.25-1.19 1.62-2.69 2.97-4.31 4.13.05.93.1 1.86.16 2.8 3.07-.5 6.25-.79 9.12-2.08 1.72-1.08 2.7-2.98 3.94-4.54 5.79 3.59 12.14 6.7 16.73 11.88-.52.99-1.04 1.98-1.55 2.98-4.93-.58-10.07-1.43-14.81.55 1.83 2.12 3.69 4.23 5.56 6.32 1.25-.05 2.51-.09 3.77-.12.36 1.27.72 2.54 1.09 3.82 4.13.12 8.26.2 12.39.22.04-1.25.09-2.48.13-3.71-2.49-.99-4.91-2.13-7.26-3.4 3.1-1.36 6.14-2.84 9.11-4.46-1.54-1.05-3.07-2.09-4.59-3.16 1.7-.78 3.4-1.55 5.1-2.32-.24-2.75-.64-5.56.02-8.28.76-2.19 2.24-4.01 3.54-5.9a150 150 0 0 0-5.95-2.66c-.21 1.58-.4 3.17-.58 4.76-3.34-1.62-5.39-5.38-4.81-9.05.65-1.94 2.95-2.22 4.68-2.53 6.58-1.12 13.25 1.65 18.15 5.94 3.24 2.78 5.55 6.47 8.84 9.2 2.02 1.82 4.91 1.13 7.37 1.09 2.77 2.26 5.4 4.69 8.03 7.13-.83 1.61-1.65 3.24-2.46 4.87 5.58 2.39 10.55 5.98 14.91 10.17 1.49 1.37 1.82 3.5 3.06 5.05 2.04 1.77 4.41 3.12 6.57 4.76-6.28 1.21-12.65-.02-18.97.23-6.38-.21-12.74 1.12-19.11.37-3.78-.39-7.6-1.09-11.38-.43-3.33.47-6.54 1.72-9.93 1.73-3.95-.28-7.64-2.27-11.66-1.91-7.73.57-15.53 1.8-23.27.66-4.01-.36-4.43-5.22-5.92-8.12-.64 3.27-1.55 7.52-5.51 8.13-7.36 1.19-14.86-.06-22.27.54-.13.74-.38 2.21-.51 2.94l-1.77-.04c-.5-1.33-.96-2.66-1.42-3.99-3.27-1.21-6.53-2.43-9.81-3.61-2.5 1.39-4.98 3.23-7.96 3.22-4.01.06-8.02-.04-12.02-.04-5.73 0-11.26-2.47-17.01-1.62-3.66.41-7.15 1.83-10.84 1.9-4.07-1.17-6.86-5.76-11.41-5.23-2.4.07-4.79.22-7.19.3-10.59-10.09-20.83-20.55-31.48-30.57.28-.37.84-1.09 1.12-1.46-.09-1.71-1.16-3.65-.36-5.23 2.11-1.04 4.42-1.58 6.5-2.69 1.3-2.62-.82-5.31-1.55-7.79-1.55-.39-3.1-.79-4.64-1.18-.07-3.43.27-6.84.97-10.18 4.55-1.11 8.83.79 12.72 2.95-.82-4-1.18-8.08-1.13-12.16 1.98 1.11 4.2 2.01 5.76 3.74 1.71 4.63 1.09 10.09-2.3 13.82.48 4.2.17 8.42 0 12.62-.23 3.27 1.78 6.86 5.02 7.8 3.35-.37 6.45-1.92 9.82-2.19 2.85-.01 5.4 1.48 7.94 2.6 3.95-3.36 8.39-6.06 13.04-8.31 1.8 2.33 3.57 4.7 5.31 7.09l8.68-.03c-.32-1.26-.64-2.5-.96-3.74-3.52-1.88-8.22-3.15-9.77-7.23-.12-3.27 3.05-4.92 5.43-6.4 4.87-2.8 9.62-6.63 11.71-12.01.48-4.54-3.04-9.31-.38-13.61 2.36-4.15 4.74-8.3 6.27-12.84 2.19-.47 4.38-.94 6.57-1.4.03-1.53.07-3.06.11-4.59-3.3-.42-6.67-.37-9.78.89-1.66-3.72-2.84-7.69-5.06-11.13-2.58-.98-5.4-.97-8.11-1.24-.38-1.81-1.11-3.6-1.02-5.46.84-2.21 2.61-3.85 4.13-5.59-.35-2.89-.87-5.76-1.62-8.58-1.5.86-2.99 1.73-4.48 2.62-1.58-1.64-3.46-3.09-4.49-5.14-.6-3.08-.11-6.23.19-9.31-1.52.93-2.95 2.14-4.7 2.62-3.44-.25-5.29-3.53-7.15-5.99 5.54 1.02 11.31 2.21 16.86.59"/><path fill="#a18084" d="M177.85 417.08c2.49 1.02 4.78 2.51 6.29 4.79-1.24-.67-2.5-1.26-3.77-1.86.31 28.33.35 56.66.18 84.99.02 13.26.15 26.54-.33 39.8 1.17.02 2.33.03 3.5.05 11.18.92 22.42-.28 33.58.98-6.75.68-13.53.54-20.29.4-6.57-.18-13.31.68-19.67-1.43.49-3.92.98-7.84.98-11.79.02-19.33.17-38.66.16-58-.31-19.31.57-38.64-.63-57.93"/><path fill="#3b030a" d="M180.37 420.01c1.27.6 2.53 1.19 3.77 1.86 5.04 5.82 10.73 11.03 16.16 16.48.36.37 1.09 1.1 1.45 1.47l-2.19 2.47c-2.73-1.58-5.3-3.44-7.36-5.84q-2.445 1.935-4.95 3.81c1.7 3.01 2.89 6.26 3.71 9.61 2.1-.22 4.21-.43 6.32-.58-2.1-2.02-4.22-4.01-6.37-5.96 1.1-.91 2.2-1.81 3.31-2.7 4.24 6.46 8.24 13.1 11.21 20.26-1.8 1.06-3.68 2.04-5.22 3.46-.34 2.73-.07 5.49.06 8.22-1.09.13-2.18.27-3.26.42-2.16 4.63-5.27 8.98-5.97 14.16-.36 2.21-.47 4.47-1.05 6.65-.82 2.68-2.77 4.84-3.66 7.5.37 3.17 2.43 5.79 3.86 8.56 3.22 5.07 2.13 11.31 3.3 16.95-.78.92-1.56 1.84-2.33 2.77-1.21-.89-2.43-1.79-3.63-2.67-2.2 2.97-4.99 7.14-2.28 10.68 2.71 1.69 6.14 1.61 8.99 3.04.86 1.04 1.52 2.23 2.24 3.38-4.27.09-8.51.54-12.76.84-1.17-.02-2.33-.03-3.5-.05.48-13.26.35-26.54.33-39.8.17-28.33.13-56.66-.18-84.99"/><path fill="#a8848c" d="M211.03 421.88c6.92 5.15 12.72 11.58 18.96 17.49 9.29 9.59 19.28 18.47 28.65 27.99 13.26 12.6 26.19 25.53 39.42 38.18 10.65 10.02 20.89 20.48 31.48 30.57 3.24 2.93 5.8 6.72 9.66 8.88 4.87.86 9.86.2 14.78.33 17.75.27 35.48-.72 53.22-.14l1.77.04c44.7.88 89.4-.13 134.1.38 2.16.12 4.27-.37 6.3-1.05.62.47 1.25.96 1.89 1.45-5.35 1.16-10.84.67-16.26.71-6.65-.01-13.29-.05-19.94-.02-43.02-.34-86.04.38-129.07-.13-15.35-.07-30.71.11-46.05-.6-2.36.05-4.1-1.7-5.71-3.17-11.81-11.86-23.73-23.63-35.85-35.17-11.22-10.44-21.78-21.57-33.07-31.93-14.8-14.53-29.71-28.94-44.58-43.39-3.52-3.2-6.78-6.67-9.7-10.42"/><path fill="#470814" d="M187.25 440.26q2.505-1.875 4.95-3.81c2.06 2.4 4.63 4.26 7.36 5.84l2.19-2.47c32.84 32.63 65.43 65.51 98.19 98.22-2.71-1.93-5.51-3.7-8.3-5.48-1.39 2.61-.22 5.32.93 7.76-2.19 1.28-4.95 3.89-7.37 1.54-2.02-1.55-6.03-4.38-3.55-7.13.76-1.15 1.6-2.23 2.43-3.32-3.51 1.49-7.13 2.69-10.79 3.76 1.26.77 2.52 1.56 3.78 2.35-1.95 1.71-4.01 4.41-6.97 3.5-6.57-1.9-13.11-3.91-19.89-4.95-1.41 1.1-2.81 2.21-4.24 3.29-5.36-2.1-9.55 3.64-14.92 2.59-6.67-.79-13.35-.13-20.02-.15-3.92.1-8.94-1.86-11.52 2.24q-1.515-.06-3.03-.03c-.72-1.15-1.38-2.34-2.24-3.38-2.85-1.43-6.28-1.35-8.99-3.04-2.71-3.54.08-7.71 2.28-10.68 1.2.88 2.42 1.78 3.63 2.67.77-.93 1.55-1.85 2.33-2.77-1.17-5.64-.08-11.88-3.3-16.95-1.43-2.77-3.49-5.39-3.86-8.56.89-2.66 2.84-4.82 3.66-7.5.58-2.18.69-4.44 1.05-6.65.7-5.18 3.81-9.53 5.97-14.16 1.08-.15 2.17-.29 3.26-.42-.13-2.73-.4-5.49-.06-8.22 1.54-1.42 3.42-2.4 5.22-3.46-2.97-7.16-6.97-13.8-11.21-20.26-1.11.89-2.21 1.79-3.31 2.7 2.15 1.95 4.27 3.94 6.37 5.96-2.11.15-4.22.36-6.32.58-.82-3.35-2.01-6.6-3.71-9.61"/><path fill="#470214" d="M436.09 452.86c.08-1.46 1.29-2.54 1.93-3.78 22.99 20.16 46.57 39.64 69.37 60.02-2.46.04-5.35.73-7.37-1.09-3.29-2.73-5.6-6.42-8.84-9.2-4.9-4.29-11.57-7.06-18.15-5.94-1.73.31-4.03.59-4.68 2.53-.58 3.67 1.47 7.43 4.81 9.05.18-1.59.37-3.18.58-4.76a150 150 0 0 1 5.95 2.66c-1.3 1.89-2.78 3.71-3.54 5.9-.66 2.72-.26 5.53-.02 8.28-1.7.77-3.4 1.54-5.1 2.32 1.52 1.07 3.05 2.11 4.59 3.16-2.97 1.62-6.01 3.1-9.11 4.46 2.35 1.27 4.77 2.41 7.26 3.4-.04 1.23-.09 2.46-.13 3.71-4.13-.02-8.26-.1-12.39-.22-.37-1.28-.73-2.55-1.09-3.82-1.26.03-2.52.07-3.77.12-1.87-2.09-3.73-4.2-5.56-6.32 4.74-1.98 9.88-1.13 14.81-.55.51-1 1.03-1.99 1.55-2.98-4.59-5.18-10.94-8.29-16.73-11.88-1.24 1.56-2.22 3.46-3.94 4.54-2.87 1.29-6.05 1.58-9.12 2.08-.06-.94-.11-1.87-.16-2.8 1.62-1.16 3.12-2.51 4.31-4.13 2-3.29 6.33-3.14 9.6-4.25-1.28-2.74-2.95-5.28-5.03-7.47-1.47.97-2.94 1.94-4.4 2.92-2.54-.9-5.2-1.6-7.48-3.06-1.55-1.25-2.14-3.27-3.03-4.98-1.99-.38-3.99-.71-5.94-1.24-4.06-.73-3.29-6.36-6.48-8.25-1.78-1.3-4.22-1.8-5.61-3.53.51-2.14 1.7-4.02 2.75-5.92-3.41-.78-6.74-1.88-10.18-2.52-3.06-.66-5.98.81-8.81 1.71-1.07-.98-2.17-1.92-3.22-2.9 2.49-1.92 5.4-3.76 6.4-6.93 1.3-2.5 1.77-6.37 5.05-7.02 4.82-.34 7.84 3.76 11.24 6.42 3.06.91 6.47 1 8.96 3.28 2.05-1 4.05-2.64 6.44-2.5 3.29 1.19 5.11 4.38 7.02 7.09-1.72 1.63-3.43 3.28-5.1 4.95 2.67.91 5.52 1.39 8.22.3-.61-1.42-1.21-2.83-1.81-4.23 3.28-.71 6.56-1.38 9.86-2.04-2.86-2.27-5.99-4.18-9.36-5.58.21-1.23.43-2.46.65-3.69-1.83-1.67-3.76-3.28-5.2-5.32"/><path fill="#b9b6af" d="M549.22 464.39c.03-1.37.92-2.48 1.58-3.61.88 5.25.63 10.58.55 15.88-.14 7.4.2 14.8.11 22.21-.13 7.14.78 14.35-.72 21.41-3.66-1.42-6.34-4.28-8.83-7.17 1.65.99 3.35 1.93 5.06 2.87.58-.25 1.74-.75 2.31-1-.31-8.32-.46-16.65-.14-24.98-.57-8.53-.33-17.08.08-25.61"/><path fill="#7f7b73" d="M508.32 484.3c4.83-2.05 9.42.69 13.19 3.53-.9 1.56-1.8 3.12-2.7 4.69-4.04-1.98-7.51-4.88-10.49-8.22"/><path fill="#370812" d="M512.96 521.1c.81-1.63 1.63-3.26 2.46-4.87 5.79 5.01 11.79 9.77 17.58 14.78 5.35 4.64 10.6 9.41 16.37 13.54-2.03.68-4.14 1.17-6.3 1.05-44.7-.51-89.4.5-134.1-.38.13-.73.38-2.2.51-2.94 7.41-.6 14.91.65 22.27-.54 3.96-.61 4.87-4.86 5.51-8.13 1.49 2.9 1.91 7.76 5.92 8.12 7.74 1.14 15.54-.09 23.27-.66 4.02-.36 7.71 1.63 11.66 1.91 3.39-.01 6.6-1.26 9.93-1.73 3.78-.66 7.6.04 11.38.43 6.37.75 12.73-.58 19.11-.37 6.32-.25 12.69.98 18.97-.23-2.16-1.64-4.53-2.99-6.57-4.76-1.24-1.55-1.57-3.68-3.06-5.05-4.36-4.19-9.33-7.78-14.91-10.17"/><path fill="#36060d" d="M273.29 535.17c3.66-1.07 7.28-2.27 10.79-3.76-.83 1.09-1.67 2.17-2.43 3.32-2.48 2.75 1.53 5.58 3.55 7.13 2.42 2.35 5.18-.26 7.37-1.54-1.15-2.44-2.32-5.15-.93-7.76 2.79 1.78 5.59 3.55 8.3 5.48.26.24.78.73 1.04.97 1.51 1.98 2.9 4.05 4.33 6.09-10.43.04-20.86-.02-31.27-.64-24.84-.26-49.7.28-74.53-.42 2.58-4.1 7.6-2.14 11.52-2.24 6.67.02 13.35-.64 20.02.15 5.37 1.05 9.56-4.69 14.92-2.59 1.43-1.08 2.83-2.19 4.24-3.29 6.78 1.04 13.32 3.05 19.89 4.95 2.96.91 5.02-1.79 6.97-3.5-1.26-.79-2.52-1.58-3.78-2.35"/><path fill="#3d0611" d="M329.54 536.11c2.4-.08 4.79-.23 7.19-.3 4.55-.53 7.34 4.06 11.41 5.23 3.69-.07 7.18-1.49 10.84-1.9 5.75-.85 11.28 1.62 17.01 1.62 4 0 8.01.1 12.02.04 2.98.01 5.46-1.83 7.96-3.22 3.28 1.18 6.54 2.4 9.81 3.61.46 1.33.92 2.66 1.42 3.99-17.74-.58-35.47.41-53.22.14-4.92-.13-9.91.53-14.78-.33-3.86-2.16-6.42-5.95-9.66-8.88"/><path fill="#69454c" d="M300.98 539.01c1.8 1.52 3.68 2.94 5.54 4.38.08 1.01.15 2.03.23 3.05-6.91.12-13.83.14-20.74-.05-22.9-.36-45.82.24-68.71-.56-11.16-1.26-22.4-.06-33.58-.98 4.25-.3 8.49-.75 12.76-.84q1.515-.03 3.03.03c24.83.7 49.69.16 74.53.42 10.41.62 20.84.68 31.27.64-1.43-2.04-2.82-4.11-4.33-6.09"/><path fill="#eceae3" d="M333.72 552.66c5.5-1.69 11.12-3.6 16.96-3.03 17.1.99 34.24-.15 51.34.42 8.98 1.43 17.93-1.09 26.93-.22 10.6.8 21.23.04 31.84-.01 7.38.53 14.77.09 22.16.26 10.29-.4 20.61.29 30.89-.58 4.71-.23 9.42.25 14.13.42 6.82.33 13.8-.79 20.46 1.25l-1.08 2.32c-3.55 1.06-7.35 1.69-10.17 4.32-1.12-1.37-2.24-2.73-3.35-4.09-.68 2.43-1.34 4.85-2.01 7.28H330.61c-.5-2.03-1.16-4.13-.83-6.23.6-1.93 1.95-3.48 3.05-5.14.29 1 .59 2.01.89 3.03"/></svg>